<svg width="44" height="44" viewBox="0 0 44 44" fill="none" xmlns="http://www.w3.org/2000/svg">
<path opacity="0.4" d="M11.335 28.1307L17.5903 20.0007L24.7255 25.6056L30.8469 17.7052" stroke="#200E32" stroke-width="3" stroke-linecap="round" stroke-linejoin="round"/>
<path d="M37.983 10.0343C40.2016 10.0343 42.0001 8.23577 42.0001 6.01716C42.0001 3.79854 40.2016 2 37.983 2C35.7644 2 33.9658 3.79854 33.9658 6.01716C33.9658 8.23577 35.7644 10.0343 37.983 10.0343Z" stroke="#200E32" stroke-width="3" stroke-linecap="round" stroke-linejoin="round"/>
<path d="M27.3846 3.75995H12.1959C5.90238 3.75995 2 8.21708 2 14.5106V31.4018C2 37.6954 5.82587 42.1334 12.1959 42.1334H30.1775C36.4711 42.1334 40.3734 37.6954 40.3734 31.4018V16.6914" stroke="#200E32" stroke-width="3" stroke-linecap="round" stroke-linejoin="round"/>
</svg>
