<svg width="44" height="44" viewBox="0 0 44 44" fill="none" xmlns="http://www.w3.org/2000/svg">
<path opacity="0.4" d="M20.5637 2.08185H12.6239C6.09412 2.08185 2 6.69643 2 13.2293V30.8525C2 37.3854 6.07501 42 12.6239 42H31.3618C37.9128 42 41.9878 37.3854 41.9878 30.8525V22.3144" stroke="#200E32" stroke-width="3" stroke-linecap="round" stroke-linejoin="round"/>
<path fill-rule="evenodd" clip-rule="evenodd" d="M14.9055 19.319L30.7744 3.47849C32.7514 1.50717 35.9558 1.50717 37.9328 3.47849L40.5171 6.05816C42.4941 8.0316 42.4941 11.2324 40.5171 13.2037L24.5717 29.1205C23.7074 29.9832 22.5352 30.4686 21.3121 30.4686H13.3574L13.557 22.4562C13.5868 21.2776 14.0688 20.1542 14.9055 19.319Z" stroke="#200E32" stroke-width="3" stroke-linecap="round" stroke-linejoin="round"/>
<path d="M28.3633 5.9259L38.0592 15.6045" stroke="#200E32" stroke-width="3" stroke-linecap="round" stroke-linejoin="round"/>
</svg>
