<svg width="42" height="45" viewBox="0 0 42 45" fill="none" xmlns="http://www.w3.org/2000/svg">
<path fill-rule="evenodd" clip-rule="evenodd" d="M39.447 13.4019L38.1173 11.0981C36.9923 9.14872 34.4992 8.47624 32.5441 9.59476C31.6134 10.1421 30.5028 10.2974 29.4573 10.0264C28.4118 9.75538 27.5172 9.08029 26.9708 8.15C26.6193 7.55869 26.4304 6.88519 26.4233 6.19762C26.455 5.09526 26.0384 4.02702 25.2685 3.23626C24.4986 2.4455 23.4409 1.99955 22.3363 2H19.6572C18.5751 2 17.5375 2.43052 16.7741 3.19632C16.0108 3.96212 15.5845 5.00007 15.5897 6.08048C15.5577 8.31116 13.7372 10.1026 11.5027 10.1024C10.814 10.0952 10.1395 9.90666 9.5472 9.55572C7.59202 8.43719 5.09895 9.10968 3.97398 11.059L2.54645 13.4019C1.42284 15.3488 2.08724 17.8363 4.03264 18.9662C5.29719 19.6951 6.07618 21.0422 6.07618 22.5C6.07618 23.9578 5.29719 25.3049 4.03264 26.0338C2.08971 27.156 1.42459 29.6375 2.54645 31.5786L3.89576 33.9019C4.42285 34.8515 5.30723 35.5522 6.35319 35.849C7.39915 36.1458 8.52046 36.0142 9.46898 35.4833C10.4014 34.9401 11.5126 34.7913 12.5555 35.0699C13.5984 35.3486 14.4866 36.0316 15.0226 36.9671C15.3742 37.5585 15.563 38.2319 15.5702 38.9195C15.5702 41.1731 17.4 43 19.6572 43H22.3363C24.5859 43 26.4125 41.185 26.4233 38.939C26.4181 37.8552 26.847 36.8143 27.6146 36.048C28.3822 35.2816 29.4248 34.8534 30.5103 34.8586C31.1974 34.8769 31.8692 35.0647 32.4658 35.4052C34.4159 36.5271 36.9074 35.8637 38.0391 33.9214L39.447 31.5786C39.992 30.6446 40.1416 29.5323 39.8627 28.4879C39.5837 27.4436 38.8992 26.5533 37.9608 26.0143C37.0224 25.4753 36.338 24.585 36.059 23.5406C35.7801 22.4963 35.9297 21.3839 36.4746 20.45C36.8291 19.8322 37.3421 19.32 37.9608 18.9662C39.8946 17.837 40.5574 15.364 39.447 13.4214V13.4019Z" stroke="#200E32" stroke-width="3" stroke-linecap="round" stroke-linejoin="round"/>
<path opacity="0.4" d="M21 28C24.3137 28 27 25.5376 27 22.5C27 19.4624 24.3137 17 21 17C17.6863 17 15 19.4624 15 22.5C15 25.5376 17.6863 28 21 28Z" stroke="#200E32" stroke-width="3" stroke-linecap="round" stroke-linejoin="round"/>
</svg>
