<svg width="9" height="10" viewBox="0 0 9 10" fill="none" xmlns="http://www.w3.org/2000/svg">
<path d="M0 4.56949C0 4.228 0.246964 3.85881 0.567382 3.81414L0.656461 3.80798H6.09277L3.46703 1.15251C3.21012 0.889664 3.20922 0.462578 3.46503 0.198593C3.69759 -0.0413942 4.06224 -0.0639715 4.31964 0.131391L4.39341 0.196538L8.18446 4.09114L8.19744 4.10535C8.21089 4.11991 8.22371 4.1351 8.23586 4.15085L8.18446 4.09114C8.20998 4.11725 8.23296 4.14497 8.25343 4.17398C8.26579 4.19221 8.2778 4.21114 8.28887 4.23069C8.31389 4.2742 8.33328 4.31973 8.34758 4.36655C8.35239 4.38305 8.35687 4.3999 8.36072 4.41701C8.36385 4.43006 8.36642 4.44333 8.3686 4.45665C8.37078 4.47109 8.37268 4.48554 8.37413 4.50012C8.37578 4.51476 8.37679 4.52972 8.37731 4.54469C8.37742 4.55299 8.37756 4.56122 8.37756 4.56949L8.37737 4.59189C8.37683 4.6085 8.37569 4.6251 8.37396 4.64164L8.37756 4.56949C8.37756 4.60801 8.37442 4.64577 8.36839 4.68253C8.36569 4.69927 8.36227 4.71609 8.35823 4.73278C8.35499 4.74604 8.35142 4.75906 8.34749 4.77192C8.34285 4.78719 8.33755 4.80258 8.33169 4.81779C8.3256 4.8335 8.31901 4.84885 8.3119 4.86389C8.30652 4.8754 8.30049 4.88727 8.29409 4.89898C8.28202 4.92096 8.26925 4.94158 8.25545 4.9614C8.25328 4.9645 8.25085 4.96793 8.24839 4.97133C8.22649 5.00144 8.2038 5.028 8.17924 5.05259L4.39344 8.94258C4.13655 9.20546 3.7209 9.20457 3.46507 8.94061C3.2325 8.70064 3.21206 8.32586 3.40328 8.0622L3.46699 7.98668L6.09277 5.33118H0.656461C0.293907 5.33118 0 4.94202 0 4.56949Z" fill="#321728" fill-opacity="0.94"/>
</svg>
