<svg width="11" height="12" viewBox="0 0 11 12" fill="none" xmlns="http://www.w3.org/2000/svg">
<path d="M0 5.99988C0 5.5515 0.324271 5.06673 0.744991 5.00809L0.861953 5L8 5L4.55232 1.51329C4.21498 1.16815 4.21381 0.607379 4.5497 0.260757C4.85505 -0.0543528 5.33385 -0.0839977 5.67182 0.172519L5.76868 0.25806L10.7465 5.3718L10.7635 5.39045C10.7812 5.40957 10.798 5.42951 10.8139 5.45019L10.7465 5.3718C10.78 5.40607 10.8101 5.44247 10.837 5.48057C10.8532 5.5045 10.869 5.52936 10.8835 5.55503C10.9164 5.61216 10.9418 5.67194 10.9606 5.73341C10.967 5.75508 10.9728 5.77721 10.9779 5.79967C10.982 5.8168 10.9854 5.83423 10.9882 5.85172C10.9911 5.87068 10.9936 5.88965 10.9955 5.9088C10.9977 5.92801 10.999 5.94766 10.9997 5.96732C10.9998 5.97822 11 5.98903 11 5.99988L10.9997 6.02929C10.999 6.0511 10.9975 6.07289 10.9953 6.09462L11 5.99988C11 6.05046 10.9959 6.10004 10.9879 6.1483C10.9844 6.17029 10.9799 6.19237 10.9746 6.21428C10.9704 6.2317 10.9657 6.2488 10.9605 6.26568C10.9544 6.28573 10.9475 6.30593 10.9398 6.32591C10.9318 6.34653 10.9231 6.36669 10.9138 6.38644C10.9067 6.40155 10.8988 6.41713 10.8904 6.43252C10.8746 6.46137 10.8578 6.48845 10.8397 6.51447C10.8368 6.51855 10.8336 6.52304 10.8304 6.52751C10.8016 6.56704 10.7718 6.60191 10.7396 6.63421L5.76873 11.7419C5.43142 12.087 4.88566 12.0859 4.54975 11.7393C4.24437 11.4242 4.21754 10.9321 4.46861 10.5859L4.55227 10.4868L8 7L0.861953 7C0.38591 7 0 6.48903 0 5.99988Z" fill="#20C562"/>
</svg>
