<svg width="1021" height="671" viewBox="0 0 1021 671" fill="none" xmlns="http://www.w3.org/2000/svg">
<g filter="url(#filter0_d)">
<rect width="985" height="637" rx="30" fill="white"/>
</g>
<rect x="447" y="240" width="484" height="268" rx="10" fill="#FFF5CB"/>
<circle cx="63.5" cy="56.5" r="7.5" fill="#80EBFF"/>
<circle cx="93.5" cy="56.5" r="7.5" fill="#FD7A8C"/>
<circle cx="123.5" cy="56.5" r="7.5" fill="#FEE895"/>
<rect x="191.5" y="36.5" width="739" height="39" rx="19.5" fill="#F7FBFF" stroke="#E9E9E9"/>
<rect y="106" width="985" height="1" fill="#ECEAEA"/>
<rect x="56" y="149" width="120" height="40" rx="10" fill="#D8E1EA"/>
<rect x="76" y="160" width="20" height="3" rx="1.5" fill="white"/>
<rect x="76" y="167" width="20" height="3" rx="1.5" fill="white"/>
<rect x="76" y="174" width="20" height="3" rx="1.5" fill="white"/>
<rect x="56" y="275" width="308" height="40" rx="10" fill="#D8E1EA"/>
<rect x="812" y="150" width="118" height="38" rx="19" stroke="#DBEDFF" stroke-width="2"/>
<rect x="56" y="420" width="215" height="40" rx="10" fill="#80EBFF"/>
<rect x="264" y="162" width="100" height="14" rx="5" fill="#684289"/>
<rect x="56" y="340" width="162" height="15" rx="5" fill="#D8E1EA"/>
<rect x="56" y="240" width="103" height="11" rx="5" fill="#99AFC6"/>
<rect x="238" y="340" width="67" height="15" rx="5" fill="#D8E1EA"/>
<rect x="384" y="164" width="100" height="10" rx="5" fill="#D8E1EA"/>
<rect x="114" y="435" width="100" height="10" rx="5" fill="#3CBBD2"/>
<rect x="504" y="164" width="100" height="10" rx="5" fill="#D8E1EA"/>
<rect x="624" y="164" width="100" height="10" rx="5" fill="#D8E1EA"/>
<path d="M915.317 170.665C914.847 170.564 914.475 170.783 914.145 170.973C913.808 171.17 913.167 171.69 912.799 171.557C910.917 170.782 909.146 169.134 908.38 167.245C908.245 166.869 908.763 166.224 908.958 165.882C909.147 165.552 909.361 165.177 909.263 164.703C909.175 164.277 908.036 162.827 907.633 162.43C907.367 162.168 907.095 162.024 906.815 162.001C905.764 161.956 904.59 163.358 904.385 163.694C903.869 164.409 903.872 165.361 904.393 166.515C905.65 169.615 910.403 174.293 913.515 175.597C914.089 175.865 914.614 176 915.086 176C915.547 176 915.958 175.871 916.311 175.616C916.578 175.462 918.038 174.23 917.999 173.151C917.976 172.876 917.832 172.601 917.574 172.335C917.18 171.928 915.739 170.754 915.317 170.665Z" fill="#88C3FE"/>
<rect x="892" y="150" width="38" height="38" rx="19" stroke="#88C3FE" stroke-width="2"/>
<path d="M220.791 48C216.81 48 213.583 51.1561 213.583 55.0494C213.583 56.8868 214.301 58.56 215.479 59.8147L213.163 62.0727C212.946 62.2845 212.946 62.6282 213.162 62.8405C213.359 63.0335 213.667 63.0514 213.885 62.894L213.947 62.8415L216.29 60.5563C217.524 61.5216 219.089 62.0989 220.791 62.0989C224.773 62.0989 228 58.9427 228 55.0494C228 51.1561 224.773 48 220.791 48ZM220.791 49.0858C224.159 49.0858 226.89 51.7558 226.89 55.0494C226.89 58.3431 224.159 61.0131 220.791 61.0131C217.423 61.0131 214.693 58.3431 214.693 55.0494C214.693 51.7558 217.423 49.0858 220.791 49.0858Z" fill="#D5D5D5"/>
<path d="M709.464 325C725.336 325 736 336.101 736 352.674V391.279C736 391.989 735.873 392.624 735.835 393.31C735.812 393.709 735.817 394.109 735.784 394.508C735.765 394.687 735.713 394.851 735.694 395.03C735.539 396.506 735.3 397.916 734.966 399.284C734.881 399.65 734.783 400.003 734.684 400.36C734.308 401.685 733.866 402.949 733.335 404.157C733.18 404.496 733.011 404.82 732.851 405.154C732.278 406.305 731.657 407.41 730.938 408.434L730.242 409.337C729.495 410.305 728.715 411.231 727.831 412.072C727.545 412.345 727.22 412.58 726.92 412.838C726.012 413.618 725.087 414.366 724.067 415.005C723.7 415.235 723.296 415.404 722.92 415.611C721.881 416.185 720.833 416.744 719.691 417.176C719.221 417.355 718.699 417.449 718.21 417.604C717.087 417.952 715.978 418.314 714.77 418.521C714.466 418.574 714.153 418.611 713.836 418.641L711.908 418.779C711.09 418.84 710.314 419 709.464 419H668.499C666.731 419 665.044 418.821 663.413 418.553C663.352 418.544 663.296 418.535 663.239 418.525C656.88 417.43 651.602 414.361 647.903 409.732C647.861 409.732 647.861 409.685 647.819 409.642C644.101 404.961 642 398.668 642 391.279V352.674C642 336.101 652.674 325 668.499 325H709.464ZM709.464 331.556H668.499C656.387 331.556 648.561 339.861 648.561 352.674V391.279C648.561 394.875 649.229 398.085 650.371 400.863C650.516 400.689 659.62 389.587 659.663 389.55C662.915 385.837 669.02 380.3 677.034 383.651C678.961 384.45 680.653 385.574 682.204 386.561C684.897 388.361 686.481 389.207 688.126 389.066C688.807 388.972 689.446 388.77 690.053 388.394C692.675 386.777 700.087 375.967 700.534 375.379C705.657 368.705 713.553 366.919 720.133 370.867C720.575 371.13 722.378 372.368 724.333 373.761L725.809 374.823C727.276 375.888 728.657 376.927 729.443 377.593V352.674C729.443 339.861 721.618 331.556 709.464 331.556ZM672.453 343.798C675.732 343.798 678.701 345.177 680.828 347.377C682.964 349.5 684.303 352.425 684.303 355.618C684.303 361.987 678.974 367.298 672.576 367.298C666.951 367.298 662.155 363.189 661.081 357.868C660.903 357.07 660.803 356.249 660.803 355.401C660.803 348.987 666.013 343.798 672.453 343.798Z" fill="#F4E29B"/>
<defs>
<filter id="filter0_d" x="0" y="0" width="1021" height="671" filterUnits="userSpaceOnUse" color-interpolation-filters="sRGB">
<feFlood flood-opacity="0" result="BackgroundImageFix"/>
<feColorMatrix in="SourceAlpha" type="matrix" values="0 0 0 0 0 0 0 0 0 0 0 0 0 0 0 0 0 0 127 0"/>
<feOffset dx="19" dy="17"/>
<feGaussianBlur stdDeviation="8.5"/>
<feColorMatrix type="matrix" values="0 0 0 0 0 0 0 0 0 0 0 0 0 0 0 0 0 0 0.05 0"/>
<feBlend mode="normal" in2="BackgroundImageFix" result="effect1_dropShadow"/>
<feBlend mode="normal" in="SourceGraphic" in2="effect1_dropShadow" result="shape"/>
</filter>
</defs>
</svg>
