<svg width="396" height="671" viewBox="0 0 396 671" fill="none" xmlns="http://www.w3.org/2000/svg">
<g filter="url(#filter0_d)">
<rect width="360" height="637" rx="30" fill="white"/>
</g>
<rect x="30.5" y="30.5" width="299" height="39" rx="19.5" fill="#F7FBFF" stroke="#E9E9E9"/>
<rect y="106" width="360" height="1" fill="#ECEAEA"/>
<rect x="30" y="143" width="120" height="40" rx="10" fill="#D8E1EA"/>
<rect x="50" y="154" width="20" height="3" rx="1.5" fill="white"/>
<rect x="50" y="161" width="20" height="3" rx="1.5" fill="white"/>
<rect x="50" y="168" width="20" height="3" rx="1.5" fill="white"/>
<rect x="30" y="359" width="300" height="40" rx="10" fill="#D8E1EA"/>
<rect x="30" y="219" width="300" height="125" rx="10" fill="#FFF5CB"/>
<rect x="211" y="144" width="118" height="38" rx="19" stroke="#D8E1EA" stroke-width="2"/>
<rect x="78" y="547" width="215" height="40" rx="10" fill="#80EBFF"/>
<circle cx="185" cy="483" r="24" fill="#D8E1EA"/>
<rect x="60" y="414" width="250" height="15" rx="5" fill="#D8E1EA"/>
<rect x="135" y="562" width="100" height="10" rx="5" fill="#3CBBD2"/>
<path d="M314.317 164.665C313.847 164.564 313.475 164.783 313.145 164.973C312.808 165.17 312.167 165.69 311.799 165.557C309.917 164.782 308.146 163.134 307.38 161.245C307.245 160.869 307.763 160.224 307.958 159.882C308.147 159.552 308.361 159.177 308.263 158.703C308.175 158.277 307.036 156.827 306.633 156.43C306.367 156.168 306.095 156.024 305.815 156.001C304.764 155.956 303.59 157.358 303.385 157.694C302.869 158.409 302.872 159.361 303.393 160.515C304.65 163.615 309.403 168.293 312.515 169.597C313.089 169.865 313.614 170 314.086 170C314.547 170 314.958 169.871 315.311 169.616C315.578 169.462 317.038 168.23 316.999 167.151C316.976 166.876 316.832 166.601 316.574 166.335C316.18 165.928 314.739 164.754 314.317 164.665Z" fill="#D8E1EA"/>
<rect x="291" y="144" width="38" height="38" rx="19" stroke="#D8E1EA" stroke-width="2"/>
<path d="M59.7913 42C55.8101 42 52.5827 45.1561 52.5827 49.0494C52.5827 50.8868 53.3015 52.56 54.4791 53.8147L52.1631 56.0727C51.946 56.2845 51.9456 56.6282 52.1621 56.8405C52.3589 57.0335 52.6673 57.0514 52.8849 56.894L52.9472 56.8415L55.2905 54.5563C56.5239 55.5216 58.0887 56.0989 59.7913 56.0989C63.7726 56.0989 67 52.9427 67 49.0494C67 45.1561 63.7726 42 59.7913 42ZM59.7913 43.0858C63.1594 43.0858 65.8897 45.7558 65.8897 49.0494C65.8897 52.3431 63.1594 55.0131 59.7913 55.0131C56.4233 55.0131 53.693 52.3431 53.693 49.0494C53.693 45.7558 56.4233 43.0858 59.7913 43.0858Z" fill="#D5D5D5"/>
<path d="M192 481.268C193.333 482.038 193.333 483.962 192 484.732L183 489.928C181.667 490.698 180 489.736 180 488.196L180 477.804C180 476.264 181.667 475.302 183 476.072L192 481.268Z" fill="white"/>
<path d="M190.45 258C198.554 258 204 263.669 204 272.131V291.845C204 292.207 203.935 292.531 203.916 292.882C203.904 293.086 203.906 293.29 203.89 293.494C203.88 293.585 203.854 293.669 203.844 293.76C203.765 294.514 203.642 295.234 203.472 295.932C203.429 296.119 203.378 296.299 203.328 296.482C203.136 297.158 202.91 297.804 202.639 298.421C202.56 298.594 202.474 298.759 202.392 298.93C202.099 299.518 201.782 300.082 201.415 300.605L201.06 301.066C200.678 301.56 200.28 302.033 199.829 302.462C199.682 302.602 199.517 302.722 199.363 302.854C198.9 303.252 198.427 303.634 197.906 303.96C197.719 304.078 197.513 304.164 197.321 304.27C196.79 304.562 196.255 304.848 195.672 305.069C195.432 305.16 195.166 305.208 194.916 305.287C194.342 305.465 193.776 305.65 193.159 305.755C193.004 305.782 192.844 305.802 192.682 305.817L191.698 305.887C191.28 305.918 190.884 306 190.45 306H169.531C168.629 306 167.767 305.909 166.934 305.772C166.903 305.767 166.874 305.762 166.846 305.758C163.598 305.198 160.903 303.631 159.014 301.267C158.993 301.267 158.993 301.243 158.971 301.222C157.073 298.831 156 295.618 156 291.845V272.131C156 263.669 161.45 258 169.531 258H190.45ZM190.45 261.348H169.531C163.346 261.348 159.35 265.589 159.35 272.131V291.845C159.35 293.681 159.691 295.32 160.274 296.738C160.349 296.65 164.998 290.981 165.019 290.962C166.68 289.066 169.798 286.238 173.89 287.95C174.874 288.358 175.738 288.931 176.53 289.435C177.905 290.354 178.714 290.786 179.554 290.714C179.902 290.666 180.228 290.563 180.538 290.371C181.877 289.546 185.662 284.026 185.89 283.726C188.506 280.318 192.538 279.406 195.898 281.422C196.123 281.556 197.044 282.188 198.043 282.899L198.796 283.442C199.545 283.986 200.251 284.516 200.652 284.856V272.131C200.652 265.589 196.656 261.348 190.45 261.348ZM171.55 267.599C173.225 267.599 174.741 268.303 175.827 269.426C176.918 270.51 177.601 272.004 177.601 273.635C177.601 276.887 174.881 279.599 171.613 279.599C168.741 279.599 166.292 277.501 165.743 274.784C165.653 274.376 165.601 273.957 165.601 273.524C165.601 270.249 168.262 267.599 171.55 267.599Z" fill="#F4E29B"/>
<defs>
<filter id="filter0_d" x="0" y="0" width="396" height="671" filterUnits="userSpaceOnUse" color-interpolation-filters="sRGB">
<feFlood flood-opacity="0" result="BackgroundImageFix"/>
<feColorMatrix in="SourceAlpha" type="matrix" values="0 0 0 0 0 0 0 0 0 0 0 0 0 0 0 0 0 0 127 0"/>
<feOffset dx="19" dy="17"/>
<feGaussianBlur stdDeviation="8.5"/>
<feColorMatrix type="matrix" values="0 0 0 0 0 0 0 0 0 0 0 0 0 0 0 0 0 0 0.05 0"/>
<feBlend mode="normal" in2="BackgroundImageFix" result="effect1_dropShadow"/>
<feBlend mode="normal" in="SourceGraphic" in2="effect1_dropShadow" result="shape"/>
</filter>
</defs>
</svg>
