<svg width="221" height="21" viewBox="0 0 221 21" fill="none" xmlns="http://www.w3.org/2000/svg">
  <path d="M9.98387 8.85595L2.31187 0.34395H0.463867V20C2.17187 20 3.87987 20 5.58787 20V11.264L9.73187 15.632H10.2919L14.4639 11.264V20C16.1719 20 17.8799 20 19.5879 20V0.34395H17.7959L9.98387 8.85595Z" fill="white"/>
  <path d="M37.0417 20H41.9417V19.2719L33.0937 0.147949H30.9377L22.1177 19.2719V20H27.0177L28.1657 17.5359H35.8937L37.0417 20ZM34.2697 13.252H29.7897L32.0017 8.09995L34.2697 13.252Z" fill="white"/>
  <path d="M60.8393 0.399949C59.1313 0.399949 57.4233 0.399949 55.7153 0.399949V7.51195H49.6673V0.399949C47.9593 0.399949 46.2233 0.399949 44.5433 0.399949V20C46.2233 20 47.9593 20 49.6673 20V12.132H55.7153V20C57.4233 20 59.1313 20 60.8393 20V0.399949Z" fill="white"/>
  <path d="M67.0474 20H72.4514L81.7474 1.15595V0.399949H76.3154L72.9554 7.62395H72.8154L69.1194 0.399949H63.5194V1.15595L70.1274 13.14L67.0474 19.468V20Z" fill="white"/>
  <path d="M101.377 10.172C101.377 12.972 99.2485 13.7 97.2045 13.812V6.55995C99.3605 6.64395 101.377 7.37195 101.377 10.172ZM88.3845 10.172C88.3845 7.37195 90.4005 6.64395 92.5565 6.55995V13.812C90.5125 13.7 88.3845 12.972 88.3845 10.172ZM92.5005 20.084H97.2605V18.432C102.329 18.264 106.501 16.276 106.501 10.172C106.501 4.09595 102.357 2.13595 97.2885 1.96795V0.31595H92.4725V1.96795C87.4045 2.13595 83.2605 4.09595 83.2605 10.172C83.2605 16.276 87.4325 18.264 92.5005 18.432V20.084Z" fill="white"/>
  <path d="M122.737 20H127.637V19.2719L118.789 0.147949H116.633L107.813 19.2719V20H112.713L113.861 17.5359H121.589L122.737 20ZM119.965 13.252H115.485L117.697 8.09995L119.965 13.252Z" fill="white"/>
  <path d="M135.335 20V12.524C135.979 12.524 136.595 12.524 137.267 12.412L141.579 20H147.151V19.216L141.831 10.5919C145.723 8.09995 145.611 4.40395 145.611 0.399949C143.875 0.399949 142.167 0.399949 140.459 0.399949C140.459 4.06795 140.711 7.81995 135.699 7.81995H135.335V0.399949C133.599 0.399949 131.919 0.399949 130.239 0.399949V20C131.919 20 133.599 20 135.335 20Z" fill="white"/>
  <path d="M152.919 4.87995V20C154.571 20 156.223 20 157.875 20V4.87995H162.663C162.663 3.36795 162.663 1.88395 162.663 0.399949H148.103C148.103 1.88395 148.103 3.36795 148.103 4.87995H152.919Z" fill="white"/>
  <path d="M167.864 20H173.268L182.564 1.15595V0.399949H177.132L173.772 7.62395H173.632L169.936 0.399949H164.336V1.15595L170.944 13.14L167.864 19.468V20Z" fill="white"/>
  <path d="M190.293 20V14.988H193.905C203.285 14.988 203.285 0.427949 193.905 0.399949C191.021 0.399949 188.109 0.399949 185.281 0.399949C185.281 6.95195 185.281 13.476 185.281 20C186.933 20 188.613 20 190.293 20ZM193.877 10.48H190.293C190.293 8.88395 190.293 6.47595 190.293 4.87995C191.441 4.87995 192.701 4.85195 193.877 4.87995C196.789 4.90795 196.621 10.48 193.877 10.48Z" fill="white"/>
  <path d="M216.007 20H220.907V19.2719L212.059 0.147949H209.903L201.083 19.2719V20H205.983L207.131 17.5359H214.859L216.007 20ZM213.235 13.252H208.755L210.967 8.09995L213.235 13.252Z" fill="white"/>
</svg>
