<svg width="224" height="21" viewBox="0 0 224 21" fill="none" xmlns="http://www.w3.org/2000/svg">
<path d="M11.984 8.856L4.312 0.343999H2.464V20C4.172 20 5.88 20 7.588 20V11.264L11.732 15.632H12.292L16.464 11.264V20C18.172 20 19.88 20 21.588 20V0.343999H19.796L11.984 8.856ZM39.0418 20H43.9418V19.272L35.0938 0.147999H32.9378L24.1178 19.272V20H29.0178L30.1658 17.536H37.8938L39.0418 20ZM36.2698 13.252H31.7898L34.0018 8.1L36.2698 13.252ZM62.8394 0.399999C61.1314 0.399999 59.4234 0.399999 57.7154 0.399999V7.512H51.6674V0.399999C49.9594 0.399999 48.2234 0.399999 46.5434 0.399999V20C48.2234 20 49.9594 20 51.6674 20V12.132H57.7154V20C59.4234 20 61.1314 20 62.8394 20V0.399999ZM69.0476 20H74.4516L83.7476 1.156V0.399999H78.3156L74.9556 7.624H74.8156L71.1196 0.399999H65.5196V1.156L72.1276 13.14L69.0476 19.468V20ZM103.377 10.172C103.377 12.972 101.249 13.7 99.2047 13.812V6.56C101.361 6.644 103.377 7.372 103.377 10.172ZM90.3847 10.172C90.3847 7.372 92.4007 6.644 94.5567 6.56V13.812C92.5127 13.7 90.3847 12.972 90.3847 10.172ZM94.5007 20.084H99.2607V18.432C104.329 18.264 108.501 16.276 108.501 10.172C108.501 4.096 104.357 2.136 99.2887 1.968V0.316H94.4727V1.968C89.4047 2.136 85.2607 4.096 85.2607 10.172C85.2607 16.276 89.4327 18.264 94.5007 18.432V20.084ZM124.737 20H129.637V19.272L120.789 0.147999H118.633L109.813 19.272V20H114.713L115.861 17.536H123.589L124.737 20ZM121.965 13.252H117.485L119.697 8.1L121.965 13.252ZM137.335 20V12.524C137.979 12.524 138.595 12.524 139.267 12.412L143.579 20H149.151V19.216L143.831 10.592C147.723 8.1 147.611 4.404 147.611 0.399999C145.875 0.399999 144.167 0.399999 142.459 0.399999C142.459 4.068 142.711 7.82 137.699 7.82H137.335V0.399999C135.599 0.399999 133.919 0.399999 132.239 0.399999V20C133.919 20 135.599 20 137.335 20ZM154.919 4.88V20C156.571 20 158.223 20 159.875 20V4.88H164.663C164.663 3.368 164.663 1.884 164.663 0.399999H150.103C150.103 1.884 150.103 3.368 150.103 4.88H154.919ZM169.864 20H175.268L184.564 1.156V0.399999H179.132L175.772 7.624H175.632L171.936 0.399999H166.336V1.156L172.944 13.14L169.864 19.468V20ZM192.293 20V14.988H195.905C205.285 14.988 205.285 0.427998 195.905 0.399999C193.021 0.399999 190.109 0.399999 187.281 0.399999C187.281 6.952 187.281 13.476 187.281 20C188.933 20 190.613 20 192.293 20ZM195.877 10.48H192.293C192.293 8.884 192.293 6.476 192.293 4.88C193.441 4.88 194.701 4.852 195.877 4.88C198.789 4.908 198.621 10.48 195.877 10.48ZM218.007 20H222.907V19.272L214.059 0.147999H211.903L203.083 19.272V20H207.983L209.131 17.536H216.859L218.007 20ZM215.235 13.252H210.755L212.967 8.1L215.235 13.252Z" fill="#252525"/>
</svg>
