<svg width="20" height="20" viewBox="0 0 20 20" fill="none" xmlns="http://www.w3.org/2000/svg">
<path d="M4.44703 0.00172547L4.47548 0.00361089C4.99574 0.0483991 5.44871 0.308558 5.86065 0.713123L5.98799 0.841953C6.77842 1.67254 8.202 3.58042 8.43427 4.25664L8.45927 4.34521C8.60086 5.02869 8.45016 5.47256 8.0006 6.25773L7.89193 6.4507C7.68569 6.82913 7.65417 6.98522 7.71791 7.16394C8.69846 9.57611 10.3717 11.2578 12.7446 12.2319C12.9693 12.3139 13.1389 12.2671 13.6132 11.9936L13.8616 11.8523C14.5286 11.4846 14.9515 11.3682 15.5751 11.4982C16.1062 11.6098 17.8234 12.8725 18.8152 13.7594L19.0891 14.0127L19.1875 14.1104C19.5907 14.5254 19.8503 14.9812 19.8955 15.5396C19.9431 16.8968 18.2956 18.8078 17.291 19.3821C16.1483 20.2049 14.6981 20.191 13.0709 19.4297C8.81803 17.6509 2.31265 11.1537 0.579015 6.8842L0.475292 6.6455C-0.182628 5.06475 -0.168143 3.69814 0.585255 2.66906C1.2719 1.52383 3.13019 -0.0595417 4.44703 0.00172547ZM4.36497 1.46397L4.27894 1.4685C3.60316 1.55891 2.24591 2.73347 1.79554 3.47919L1.71762 3.5958C1.32905 4.2325 1.37395 5.10758 1.91511 6.30456L2.01861 6.54808C3.76508 10.488 9.81207 16.4818 13.6572 18.0908L13.8691 18.1855C14.9821 18.6598 15.8239 18.6389 16.5055 18.1524L16.5559 18.1198C16.7668 17.9725 17.2534 17.5281 17.6281 17.0935C18.1545 16.483 18.4526 15.9236 18.443 15.6259C18.4325 15.4985 18.3347 15.3268 18.1559 15.1426L18.0749 15.0621C17.3814 14.3949 15.4898 12.9752 15.2784 12.9308C15.0621 12.8857 14.8844 12.9466 14.399 13.2273L14.1539 13.3657C13.4386 13.7534 12.9336 13.8575 12.2214 13.5971C9.45972 12.464 7.4991 10.4936 6.35996 7.68968C6.0901 6.93988 6.23546 6.40967 6.70506 5.58738L6.81663 5.39014C7.02988 5.00325 7.07489 4.83908 7.03419 4.64265C6.99113 4.43341 5.68914 2.68353 5.01708 1.9415L4.84383 1.75911L4.75204 1.67518C4.62602 1.56689 4.5141 1.50117 4.4192 1.47438L4.36497 1.46397ZM12.4813 3.70096L12.5795 3.7134C14.5878 4.10696 16.1572 5.6848 16.5487 7.70396C16.6256 8.10057 16.3681 8.48476 15.9736 8.56206C15.5791 8.63937 15.197 8.38052 15.1201 7.98391C14.8421 6.54969 13.7276 5.42921 12.301 5.14966C11.9065 5.07236 11.6491 4.68817 11.726 4.29155C11.7901 3.96104 12.0661 3.7262 12.3846 3.70184L12.4813 3.70096ZM12.4217 0.243733L12.5206 0.24805C16.4504 0.686687 19.5537 3.803 19.9954 7.75343C20.0403 8.15498 19.7529 8.51709 19.3535 8.56222C18.9541 8.60735 18.5939 8.31842 18.549 7.91687C18.1833 4.64586 15.6138 2.06559 12.36 1.70241C11.9605 1.65782 11.6726 1.29611 11.717 0.894497C11.7539 0.559822 12.0099 0.303054 12.3254 0.252564L12.4217 0.243733Z" fill="#200E32"/>
</svg>
