<svg width="20" height="21" viewBox="0 0 20 21" fill="none" xmlns="http://www.w3.org/2000/svg">
<path d="M7.61053 0.827471C8.94737 -0.232085 10.8211 -0.27409 12.1989 0.701458L12.3684 0.827471L18.7779 5.94254C19.4832 6.48754 19.9158 7.29717 19.9895 8.17821L20 8.38928V16.9046C20 19.0993 18.2621 20.8845 16.0842 21H13.9895C12.9884 20.98 12.1789 20.203 12.1053 19.2264L12.0947 19.0783V16.0761C12.0947 15.7495 11.8516 15.4775 11.5263 15.4239L11.4316 15.4134H8.62C8.28421 15.4239 8.01053 15.6655 7.96842 15.9805L7.95789 16.0761V19.0689C7.95789 19.1308 7.94632 19.2043 7.93684 19.2568L7.92632 19.2789L7.91474 19.3513C7.78947 20.245 7.05263 20.9265 6.13684 20.9905L6 21H4.11579C1.91579 21 0.115789 19.2789 0 17.1146V8.38928C0.00947368 7.49564 0.4 6.66606 1.05263 6.0885L7.61053 0.827471ZM11.4526 1.97209C10.6526 1.33152 9.51579 1.30107 8.67369 1.85657L8.51474 1.97209L2.11474 7.11865C1.74737 7.39063 1.52632 7.80017 1.47368 8.23072L1.46211 8.39873V16.9046C1.46211 18.3012 2.55684 19.4458 3.94737 19.5299H6C6.23158 19.5299 6.43158 19.3734 6.46211 19.1529L6.48421 18.9638L6.49474 18.9103V16.0761C6.49474 14.9524 7.35789 14.0388 8.46316 13.9538H11.4316C12.5568 13.9538 13.4726 14.8159 13.5579 15.9185V19.0783C13.5579 19.2988 13.7158 19.4889 13.9263 19.5299H15.8832C17.2937 19.5299 18.4411 18.4493 18.5253 17.0726L18.5368 16.9046V8.39873C18.5253 7.94824 18.3368 7.52714 18.0105 7.21316L17.8737 7.0966L11.4526 1.97209Z" fill="#200E32"/>
</svg>
