<svg width="650" height="510" viewBox="0 0 650 510" fill="none" xmlns="http://www.w3.org/2000/svg">
<g filter="url(#filter0_d)">
<rect x="4" y="5" width="620" height="480" rx="30" fill="white"/>
<rect x="4.5" y="5.5" width="619" height="479" rx="29.5" stroke="#F3F3F3"/>
</g>
<rect x="77" y="42" width="479" height="208" rx="10" fill="#FFF5CB"/>
<rect x="204.871" y="317.836" width="218.557" height="28.384" rx="10" fill="#D2E0F1"/>
<rect x="237.512" y="393.053" width="152.564" height="28.384" rx="10" fill="#80EBFF"/>
<rect x="225.302" y="363.96" width="177.427" height="10.7532" rx="5" fill="#D2E0F1"/>
<rect x="276.917" y="293" width="73.0887" height="7.80559" rx="3.90279" fill="#ADC6E2"/>
<rect x="278.668" y="403.697" width="70.9599" height="7.09599" rx="3.548" fill="#3CBBD2"/>
<path d="M328.015 123C339.278 123 346.845 130.878 346.845 142.637V170.032C346.845 170.535 346.755 170.986 346.728 171.473C346.711 171.756 346.715 172.04 346.691 172.323C346.678 172.45 346.641 172.566 346.628 172.693C346.518 173.74 346.348 174.741 346.111 175.712C346.051 175.972 345.981 176.222 345.911 176.475C345.644 177.416 345.331 178.313 344.954 179.17C344.844 179.41 344.724 179.64 344.61 179.877C344.203 180.694 343.763 181.478 343.253 182.205L342.759 182.845C342.229 183.532 341.675 184.189 341.048 184.786C340.845 184.98 340.615 185.147 340.401 185.33C339.758 185.884 339.101 186.414 338.377 186.867C338.117 187.031 337.83 187.151 337.563 187.298C336.826 187.705 336.082 188.101 335.272 188.408C334.939 188.535 334.568 188.602 334.221 188.712C333.424 188.959 332.637 189.215 331.78 189.362C331.565 189.4 331.343 189.427 331.117 189.447L329.749 189.546C329.169 189.589 328.618 189.702 328.015 189.702H298.946C297.692 189.702 296.495 189.576 295.337 189.385C295.294 189.379 295.254 189.372 295.214 189.365C290.702 188.588 286.956 186.411 284.331 183.125C284.301 183.125 284.301 183.092 284.271 183.062C281.633 179.74 280.143 175.275 280.143 170.032V142.637C280.143 130.878 287.717 123 298.946 123H328.015ZM328.015 127.652H298.946C290.351 127.652 284.798 133.546 284.798 142.637V170.032C284.798 172.583 285.272 174.861 286.082 176.832C286.186 176.709 292.646 168.831 292.676 168.804C294.984 166.17 299.316 162.241 305.003 164.619C306.37 165.186 307.571 165.983 308.671 166.683C310.582 167.961 311.706 168.561 312.873 168.461C313.357 168.394 313.811 168.251 314.241 167.984C316.102 166.837 321.361 159.166 321.678 158.749C325.313 154.013 330.916 152.746 335.586 155.547C335.899 155.734 337.179 156.612 338.566 157.601L339.614 158.354C340.654 159.11 341.635 159.847 342.192 160.32V142.637C342.192 133.546 336.639 127.652 328.015 127.652ZM301.752 136.339C304.079 136.339 306.186 137.318 307.695 138.879C309.211 140.385 310.161 142.461 310.161 144.727C310.161 149.246 306.38 153.015 301.839 153.015C297.848 153.015 294.445 150.099 293.682 146.323C293.556 145.757 293.485 145.174 293.485 144.572C293.485 140.021 297.182 136.339 301.752 136.339Z" fill="#F4E29B"/>
<defs>
<filter id="filter0_d" x="0" y="0" width="650" height="510" filterUnits="userSpaceOnUse" color-interpolation-filters="sRGB">
<feFlood flood-opacity="0" result="BackgroundImageFix"/>
<feColorMatrix in="SourceAlpha" type="matrix" values="0 0 0 0 0 0 0 0 0 0 0 0 0 0 0 0 0 0 127 0"/>
<feOffset dx="11" dy="10"/>
<feGaussianBlur stdDeviation="7.5"/>
<feColorMatrix type="matrix" values="0 0 0 0 0 0 0 0 0 0 0 0 0 0 0 0 0 0 0.05 0"/>
<feBlend mode="normal" in2="BackgroundImageFix" result="effect1_dropShadow"/>
<feBlend mode="normal" in="SourceGraphic" in2="effect1_dropShadow" result="shape"/>
</filter>
</defs>
</svg>
