<svg width="649" height="510" viewBox="0 0 649 510" fill="none" xmlns="http://www.w3.org/2000/svg">
<g filter="url(#filter0_d)">
<rect x="4" y="5" width="361" height="230" rx="10" fill="white"/>
<rect x="4.5" y="5.5" width="360" height="229" rx="9.5" stroke="#F3F3F3"/>
</g>
<rect x="176" y="25" width="170" height="179" rx="10" fill="#FFF5CB"/>
<rect x="25" y="43" width="130" height="28" rx="10" fill="#D2E0F1"/>
<rect x="24.8955" y="25" width="71.5554" height="7.80559" rx="3.90279" fill="#ADC6E2"/>
<rect x="25" y="91" width="86" height="7" rx="3.5" fill="#D2E0F1"/>
<rect x="25" y="108" width="130" height="7" rx="3.5" fill="#D2E0F1"/>
<rect x="25" y="142" width="130" height="7" rx="3.5" fill="#D2E0F1"/>
<rect x="25" y="125" width="55" height="7" rx="3.5" fill="#D2E0F1"/>
<rect x="90" y="125" width="25" height="7" rx="3.5" fill="#D2E0F1"/>
<path d="M269.517 95C275.756 95 279.948 99.457 279.948 106.11V121.61C279.948 121.895 279.898 122.15 279.883 122.425C279.874 122.585 279.875 122.746 279.863 122.906C279.855 122.978 279.835 123.044 279.827 123.116C279.766 123.708 279.672 124.274 279.541 124.823C279.508 124.971 279.469 125.112 279.43 125.256C279.282 125.788 279.109 126.295 278.9 126.78C278.839 126.916 278.773 127.046 278.71 127.18C278.484 127.643 278.241 128.086 277.958 128.497L277.684 128.86C277.391 129.248 277.084 129.62 276.737 129.958C276.624 130.067 276.497 130.162 276.378 130.265C276.022 130.579 275.658 130.879 275.257 131.135C275.113 131.228 274.954 131.296 274.806 131.379C274.398 131.609 273.986 131.833 273.537 132.007C273.352 132.079 273.147 132.117 272.955 132.179C272.514 132.318 272.078 132.464 271.603 132.547C271.483 132.568 271.36 132.583 271.236 132.595L270.478 132.651C270.156 132.675 269.852 132.739 269.517 132.739H253.416C252.721 132.739 252.058 132.668 251.417 132.56C251.393 132.556 251.37 132.552 251.348 132.549C248.849 132.109 246.774 130.877 245.32 129.018C245.304 129.018 245.304 128.999 245.287 128.982C243.826 127.103 243 124.576 243 121.61V106.11C243 99.457 247.195 95 253.416 95H269.517ZM269.517 97.6323H253.416C248.655 97.6323 245.579 100.967 245.579 106.11V121.61C245.579 123.053 245.841 124.342 246.29 125.457C246.347 125.388 249.926 120.931 249.942 120.916C251.221 119.425 253.621 117.202 256.77 118.547C257.528 118.868 258.193 119.319 258.802 119.715C259.861 120.438 260.484 120.778 261.13 120.721C261.398 120.683 261.649 120.602 261.888 120.451C262.918 119.802 265.832 115.462 266.007 115.226C268.021 112.547 271.124 111.83 273.711 113.415C273.884 113.521 274.593 114.017 275.362 114.577L275.942 115.003C276.518 115.431 277.061 115.848 277.37 116.115V106.11C277.37 100.967 274.295 97.6323 269.517 97.6323ZM254.97 102.547C256.259 102.547 257.426 103.101 258.262 103.984C259.101 104.836 259.627 106.011 259.627 107.293C259.627 109.849 257.533 111.982 255.018 111.982C252.807 111.982 250.922 110.332 250.5 108.196C250.43 107.875 250.391 107.546 250.391 107.205C250.391 104.63 252.438 102.547 254.97 102.547Z" fill="#F4E29B"/>
<rect x="25" y="176" width="130" height="28" rx="10" fill="#80EBFF"/>
<rect x="54" y="187" width="72" height="7" rx="3.5" fill="#3CBBD2"/>
<g filter="url(#filter1_d)">
<rect x="4" y="255" width="318" height="230" rx="10" fill="white"/>
<rect x="4.5" y="255.5" width="317" height="229" rx="9.5" stroke="#F3F3F3"/>
</g>
<rect x="24.1045" y="293" width="130" height="28" rx="10" fill="#D2E0F1"/>
<rect x="24" y="275" width="71.5554" height="7.80559" rx="3.90279" fill="#ADC6E2"/>
<rect x="24.1045" y="341" width="83.2168" height="7" rx="3.5" fill="#D2E0F1"/>
<rect x="165" y="392" width="83.2168" height="7" rx="3.5" fill="#D2E0F1"/>
<rect x="24" y="358" width="270" height="7" rx="3.5" fill="#D2E0F1"/>
<rect x="24.1045" y="392" width="130" height="7" rx="3.5" fill="#D2E0F1"/>
<rect x="24.1045" y="375" width="54.8252" height="7" rx="3.5" fill="#D2E0F1"/>
<rect x="120" y="375" width="174" height="7" rx="3.5" fill="#D2E0F1"/>
<rect x="88.7197" y="375" width="21.5385" height="7" rx="3.5" fill="#D2E0F1"/>
<rect x="260" y="392" width="34" height="7" rx="3.5" fill="#D2E0F1"/>
<path d="M52.16 419C59.24 419 64 423.56 64 430.34V447.68C64 454.458 59.24 459 52.16 459H35.82C28.76 459 24 454.458 24 447.68V430.34C24 423.56 28.76 419 35.82 419H52.16ZM45.7 430.44C45.12 429.86 44.16 429.86 43.58 430.44C43 431.04 43 431.98 43.58 432.58L48.54 437.5H35.84C35 437.5 34.34 438.18 34.34 439C34.34 439.84 35 440.5 35.84 440.5H48.54L43.58 445.44C43.3 445.72 43.14 446.12 43.14 446.5C43.14 446.878 43.3 447.26 43.58 447.56C44.16 448.14 45.12 448.14 45.7 447.56L53.24 440.06C53.8 439.5 53.8 438.5 53.24 437.94L45.7 430.44Z" fill="#80EBFF"/>
<g filter="url(#filter2_d)">
<rect x="383" y="5" width="240" height="230" rx="10" fill="white"/>
<rect x="383.5" y="5.5" width="239" height="229" rx="9.5" stroke="#F3F3F3"/>
</g>
<rect x="403.104" y="43" width="130" height="28" rx="10" fill="#D2E0F1"/>
<rect x="403" y="25" width="71.5554" height="7.80559" rx="3.90279" fill="#ADC6E2"/>
<rect x="403.104" y="91" width="83.2168" height="7" rx="3.5" fill="#D2E0F1"/>
<rect x="544" y="142" width="59" height="7" rx="3.5" fill="#D2E0F1"/>
<rect x="403" y="108" width="200" height="7" rx="3.5" fill="#D2E0F1"/>
<rect x="403.104" y="142" width="130" height="7" rx="3.5" fill="#D2E0F1"/>
<rect x="403.104" y="125" width="54.8252" height="7" rx="3.5" fill="#D2E0F1"/>
<rect x="499" y="125" width="104" height="7" rx="3.5" fill="#D2E0F1"/>
<rect x="467.72" y="125" width="21.5385" height="7" rx="3.5" fill="#D2E0F1"/>
<path d="M431.16 175C438.24 175 443 179.56 443 186.34V203.68C443 210.458 438.24 215 431.16 215H414.82C407.76 215 403 210.458 403 203.68V186.34C403 179.56 407.76 175 414.82 175H431.16ZM424.7 186.44C424.12 185.86 423.16 185.86 422.58 186.44C422 187.04 422 187.98 422.58 188.58L427.54 193.5H414.84C414 193.5 413.34 194.18 413.34 195C413.34 195.84 414 196.5 414.84 196.5H427.54L422.58 201.44C422.3 201.72 422.14 202.12 422.14 202.5C422.14 202.878 422.3 203.26 422.58 203.56C423.16 204.14 424.12 204.14 424.7 203.56L432.24 196.06C432.8 195.5 432.8 194.5 432.24 193.94L424.7 186.44Z" fill="#F4E29B"/>
<g filter="url(#filter3_d)">
<rect x="344" y="255" width="279" height="230" rx="10" fill="white"/>
<rect x="344.5" y="255.5" width="278" height="229" rx="9.5" stroke="#F3F3F3"/>
</g>
<rect x="364.455" y="275" width="237.902" height="107" rx="10" fill="#FFF5CB"/>
<rect x="364.455" y="396" width="83.2168" height="7" rx="3.5" fill="#D2E0F1"/>
<rect x="364.455" y="413" width="121.399" height="7" rx="3.5" fill="#D2E0F1"/>
<rect x="495.644" y="413" width="106.713" height="7" rx="3.5" fill="#D2E0F1"/>
<path d="M491.518 310C497.756 310 501.948 314.457 501.948 321.11V336.61C501.948 336.895 501.898 337.15 501.883 337.425C501.874 337.585 501.876 337.746 501.863 337.906C501.856 337.978 501.835 338.044 501.828 338.116C501.767 338.708 501.673 339.274 501.542 339.823C501.508 339.971 501.47 340.112 501.431 340.256C501.283 340.788 501.109 341.295 500.901 341.78C500.84 341.916 500.773 342.046 500.71 342.18C500.485 342.643 500.241 343.086 499.958 343.497L499.685 343.86C499.391 344.248 499.085 344.62 498.737 344.958C498.625 345.067 498.497 345.162 498.379 345.265C498.022 345.579 497.658 345.879 497.258 346.135C497.113 346.228 496.955 346.296 496.807 346.379C496.398 346.609 495.987 346.833 495.538 347.007C495.353 347.079 495.148 347.117 494.956 347.179C494.514 347.318 494.078 347.464 493.603 347.547C493.484 347.568 493.361 347.583 493.236 347.595L492.478 347.651C492.157 347.675 491.852 347.739 491.518 347.739H475.416C474.721 347.739 474.058 347.668 473.417 347.56C473.393 347.556 473.371 347.552 473.349 347.549C470.849 347.109 468.775 345.877 467.321 344.018C467.304 344.018 467.304 343.999 467.288 343.982C465.826 342.103 465 339.576 465 336.61V321.11C465 314.457 469.196 310 475.416 310H491.518ZM491.518 312.632H475.416C470.655 312.632 467.579 315.967 467.579 321.11V336.61C467.579 338.053 467.842 339.342 468.291 340.457C468.348 340.388 471.926 335.931 471.943 335.916C473.221 334.425 475.621 332.202 478.771 333.547C479.528 333.868 480.193 334.319 480.803 334.715C481.861 335.438 482.484 335.778 483.131 335.721C483.398 335.683 483.65 335.602 483.888 335.451C484.919 334.802 487.832 330.462 488.008 330.226C490.021 327.547 493.125 326.83 495.711 328.415C495.885 328.521 496.594 329.017 497.362 329.577L497.942 330.003C498.519 330.431 499.062 330.848 499.371 331.115V321.11C499.371 315.967 496.295 312.632 491.518 312.632ZM476.97 317.547C478.259 317.547 479.426 318.101 480.262 318.984C481.102 319.836 481.628 321.011 481.628 322.293C481.628 324.849 479.534 326.982 477.018 326.982C474.808 326.982 472.923 325.332 472.5 323.196C472.43 322.875 472.391 322.546 472.391 322.205C472.391 319.63 474.439 317.547 476.97 317.547Z" fill="#F4E29B"/>
<rect x="364" y="437" width="130" height="28" rx="10" fill="#80EBFF"/>
<rect x="392" y="447.644" width="70.9599" height="7.09599" rx="3.548" fill="#3CBBD2"/>
<defs>
<filter id="filter0_d" x="0" y="0" width="391" height="260" filterUnits="userSpaceOnUse" color-interpolation-filters="sRGB">
<feFlood flood-opacity="0" result="BackgroundImageFix"/>
<feColorMatrix in="SourceAlpha" type="matrix" values="0 0 0 0 0 0 0 0 0 0 0 0 0 0 0 0 0 0 127 0"/>
<feOffset dx="11" dy="10"/>
<feGaussianBlur stdDeviation="7.5"/>
<feColorMatrix type="matrix" values="0 0 0 0 0 0 0 0 0 0 0 0 0 0 0 0 0 0 0.05 0"/>
<feBlend mode="normal" in2="BackgroundImageFix" result="effect1_dropShadow"/>
<feBlend mode="normal" in="SourceGraphic" in2="effect1_dropShadow" result="shape"/>
</filter>
<filter id="filter1_d" x="0" y="250" width="348" height="260" filterUnits="userSpaceOnUse" color-interpolation-filters="sRGB">
<feFlood flood-opacity="0" result="BackgroundImageFix"/>
<feColorMatrix in="SourceAlpha" type="matrix" values="0 0 0 0 0 0 0 0 0 0 0 0 0 0 0 0 0 0 127 0"/>
<feOffset dx="11" dy="10"/>
<feGaussianBlur stdDeviation="7.5"/>
<feColorMatrix type="matrix" values="0 0 0 0 0 0 0 0 0 0 0 0 0 0 0 0 0 0 0.05 0"/>
<feBlend mode="normal" in2="BackgroundImageFix" result="effect1_dropShadow"/>
<feBlend mode="normal" in="SourceGraphic" in2="effect1_dropShadow" result="shape"/>
</filter>
<filter id="filter2_d" x="379" y="0" width="270" height="260" filterUnits="userSpaceOnUse" color-interpolation-filters="sRGB">
<feFlood flood-opacity="0" result="BackgroundImageFix"/>
<feColorMatrix in="SourceAlpha" type="matrix" values="0 0 0 0 0 0 0 0 0 0 0 0 0 0 0 0 0 0 127 0"/>
<feOffset dx="11" dy="10"/>
<feGaussianBlur stdDeviation="7.5"/>
<feColorMatrix type="matrix" values="0 0 0 0 0 0 0 0 0 0 0 0 0 0 0 0 0 0 0.05 0"/>
<feBlend mode="normal" in2="BackgroundImageFix" result="effect1_dropShadow"/>
<feBlend mode="normal" in="SourceGraphic" in2="effect1_dropShadow" result="shape"/>
</filter>
<filter id="filter3_d" x="340" y="250" width="309" height="260" filterUnits="userSpaceOnUse" color-interpolation-filters="sRGB">
<feFlood flood-opacity="0" result="BackgroundImageFix"/>
<feColorMatrix in="SourceAlpha" type="matrix" values="0 0 0 0 0 0 0 0 0 0 0 0 0 0 0 0 0 0 127 0"/>
<feOffset dx="11" dy="10"/>
<feGaussianBlur stdDeviation="7.5"/>
<feColorMatrix type="matrix" values="0 0 0 0 0 0 0 0 0 0 0 0 0 0 0 0 0 0 0.05 0"/>
<feBlend mode="normal" in2="BackgroundImageFix" result="effect1_dropShadow"/>
<feBlend mode="normal" in="SourceGraphic" in2="effect1_dropShadow" result="shape"/>
</filter>
</defs>
</svg>
