<svg width="545" height="558" viewBox="0 0 545 558" fill="none" xmlns="http://www.w3.org/2000/svg">
<g filter="url(#filter0_d)">
<rect x="4" y="5" width="515" height="251" rx="10" fill="white"/>
<rect x="4.5" y="5.5" width="514" height="250" rx="9.5" stroke="#F3F3F3"/>
</g>
<rect x="29.4551" y="25" width="237.902" height="107" rx="10" fill="#FFF5CB"/>
<rect x="288.896" y="97" width="121.399" height="107" rx="10" fill="#FFF5CB"/>
<rect x="288.896" y="43" width="121.399" height="28" rx="10" fill="#D2E0F1"/>
<rect x="288.896" y="25" width="71.5554" height="7.80559" rx="3.90279" fill="#ADC6E2"/>
<rect x="29.4551" y="146" width="83.2168" height="7" rx="3.5" fill="#D2E0F1"/>
<rect x="29.4551" y="163" width="121.399" height="7" rx="3.5" fill="#D2E0F1"/>
<rect x="160.644" y="163" width="106.713" height="7" rx="3.5" fill="#D2E0F1"/>
<rect x="29.4551" y="180" width="54.8252" height="7" rx="3.5" fill="#D2E0F1"/>
<rect x="125.398" y="180" width="141.958" height="7" rx="3.5" fill="#D2E0F1"/>
<rect x="94.0703" y="180" width="21.5385" height="7" rx="3.5" fill="#D2E0F1"/>
<path d="M156.81 60C163.049 60 167.24 64.457 167.24 71.1104V86.6099C167.24 86.8949 167.191 87.1496 167.176 87.4251C167.167 87.5855 167.168 87.7459 167.155 87.9063C167.148 87.978 167.128 88.044 167.12 88.1157C167.059 88.7082 166.965 89.2743 166.834 89.8234C166.801 89.9706 166.762 90.1121 166.723 90.2555C166.575 90.7877 166.402 91.2953 166.193 91.7802C166.132 91.9161 166.066 92.0463 166.003 92.1802C165.777 92.6426 165.533 93.086 165.251 93.4973L164.977 93.8596C164.684 94.2484 164.377 94.6201 164.03 94.9579C163.917 95.0673 163.79 95.1616 163.671 95.2654C163.315 95.5787 162.951 95.8787 162.55 96.1353C162.406 96.2278 162.247 96.2957 162.099 96.3787C161.691 96.6089 161.279 96.8335 160.83 97.0071C160.645 97.0788 160.44 97.1165 160.248 97.1788C159.807 97.3184 159.371 97.4637 158.896 97.5468C158.776 97.5681 158.653 97.5832 158.529 97.5951L157.771 97.6505C157.449 97.6751 157.145 97.7392 156.81 97.7392H140.708C140.014 97.7392 139.351 97.6675 138.71 97.56C138.686 97.5562 138.663 97.5524 138.641 97.5487C136.142 97.109 134.067 95.8768 132.613 94.0181C132.597 94.0181 132.597 93.9993 132.58 93.9823C131.119 92.1029 130.293 89.5762 130.293 86.6099V71.1104C130.293 64.457 134.488 60 140.708 60H156.81ZM156.81 62.6323H140.708C135.948 62.6323 132.872 65.9666 132.872 71.1104V86.6099C132.872 88.0535 133.134 89.3423 133.583 90.4575C133.64 90.3876 137.219 85.9306 137.235 85.9155C138.514 84.4248 140.914 82.202 144.063 83.5474C144.821 83.8682 145.486 84.3192 146.095 84.7154C147.154 85.4381 147.777 85.7778 148.423 85.7212C148.691 85.6834 148.942 85.6023 149.181 85.4513C150.211 84.8022 153.125 80.4622 153.3 80.2263C155.314 77.5469 158.417 76.8298 161.004 78.4149C161.177 78.5205 161.886 79.0173 162.655 79.5768L163.235 80.003C163.811 80.4308 164.354 80.8476 164.663 81.1151V71.1104C164.663 65.9666 161.588 62.6323 156.81 62.6323ZM142.263 67.5471C143.552 67.5471 144.719 68.1007 145.555 68.9839C146.394 69.8361 146.92 71.0107 146.92 72.2927C146.92 74.8495 144.826 76.9819 142.311 76.9819C140.1 76.9819 138.215 75.332 137.793 73.196C137.723 72.8755 137.684 72.5458 137.684 72.2053C137.684 69.6304 139.731 67.5471 142.263 67.5471Z" fill="#F4E29B"/>
<path d="M357.51 132C363.749 132 367.941 136.457 367.941 143.11V158.61C367.941 158.895 367.891 159.15 367.876 159.425C367.867 159.585 367.869 159.746 367.856 159.906C367.848 159.978 367.828 160.044 367.821 160.116C367.76 160.708 367.665 161.274 367.534 161.823C367.501 161.971 367.462 162.112 367.423 162.256C367.276 162.788 367.102 163.295 366.893 163.78C366.832 163.916 366.766 164.046 366.703 164.18C366.478 164.643 366.234 165.086 365.951 165.497L365.678 165.86C365.384 166.248 365.077 166.62 364.73 166.958C364.617 167.067 364.49 167.162 364.372 167.265C364.015 167.579 363.651 167.879 363.25 168.135C363.106 168.228 362.947 168.296 362.799 168.379C362.391 168.609 361.979 168.833 361.53 169.007C361.346 169.079 361.14 169.117 360.948 169.179C360.507 169.318 360.071 169.464 359.596 169.547C359.477 169.568 359.354 169.583 359.229 169.595L358.471 169.651C358.15 169.675 357.845 169.739 357.51 169.739H341.409C340.714 169.739 340.051 169.668 339.41 169.56C339.386 169.556 339.364 169.552 339.341 169.549C336.842 169.109 334.767 167.877 333.313 166.018C333.297 166.018 333.297 165.999 333.28 165.982C331.819 164.103 330.993 161.576 330.993 158.61V143.11C330.993 136.457 335.189 132 341.409 132H357.51ZM357.51 134.632H341.409C336.648 134.632 333.572 137.967 333.572 143.11V158.61C333.572 160.053 333.834 161.342 334.283 162.457C334.341 162.388 337.919 157.931 337.936 157.916C339.214 156.425 341.614 154.202 344.763 155.547C345.521 155.868 346.186 156.319 346.796 156.715C347.854 157.438 348.477 157.778 349.123 157.721C349.391 157.683 349.642 157.602 349.881 157.451C350.912 156.802 353.825 152.462 354 152.226C356.014 149.547 359.118 148.83 361.704 150.415C361.878 150.521 362.587 151.017 363.355 151.577L363.935 152.003C364.512 152.431 365.055 152.848 365.364 153.115V143.11C365.364 137.967 362.288 134.632 357.51 134.632ZM342.963 139.547C344.252 139.547 345.419 140.101 346.255 140.984C347.094 141.836 347.621 143.011 347.621 144.293C347.621 146.849 345.526 148.982 343.011 148.982C340.8 148.982 338.915 147.332 338.493 145.196C338.423 144.875 338.384 144.546 338.384 144.205C338.384 141.63 340.432 139.547 342.963 139.547Z" fill="#F4E29B"/>
<g filter="url(#filter1_d)">
<rect x="4" y="282" width="515" height="251" rx="10" fill="white"/>
<rect x="4.5" y="282.5" width="514" height="250" rx="9.5" stroke="#F3F3F3"/>
</g>
<rect x="23.5801" y="302" width="237.902" height="107" rx="10" fill="#FFF5CB"/>
<rect x="283.021" y="374" width="121.399" height="107" rx="10" fill="#FFF5CB"/>
<rect x="283.021" y="320" width="121.399" height="28" rx="10" fill="#D2E0F1"/>
<rect x="283.021" y="302" width="71.5554" height="7.80559" rx="3.90279" fill="#ADC6E2"/>
<rect x="23.5801" y="423" width="83.2168" height="7" rx="3.5" fill="#D2E0F1"/>
<rect x="23.5801" y="440" width="121.399" height="7" rx="3.5" fill="#D2E0F1"/>
<rect x="154.77" y="440" width="106.713" height="7" rx="3.5" fill="#D2E0F1"/>
<rect x="23.5801" y="457" width="54.8252" height="7" rx="3.5" fill="#D2E0F1"/>
<rect x="23.5801" y="474" width="237.902" height="7" rx="3.5" fill="#D2E0F1"/>
<rect x="119.524" y="457" width="141.958" height="7" rx="3.5" fill="#D2E0F1"/>
<rect x="88.1963" y="457" width="21.5385" height="7" rx="3.5" fill="#D2E0F1"/>
<path d="M150.937 337C157.176 337 161.367 341.457 161.367 348.11V363.61C161.367 363.895 161.318 364.15 161.303 364.425C161.294 364.585 161.295 364.746 161.282 364.906C161.275 364.978 161.255 365.044 161.247 365.116C161.186 365.708 161.092 366.274 160.961 366.823C160.928 366.971 160.889 367.112 160.85 367.256C160.702 367.788 160.529 368.295 160.32 368.78C160.259 368.916 160.192 369.046 160.13 369.18C159.904 369.643 159.66 370.086 159.378 370.497L159.104 370.86C158.811 371.248 158.504 371.62 158.157 371.958C158.044 372.067 157.917 372.162 157.798 372.265C157.442 372.579 157.078 372.879 156.677 373.135C156.533 373.228 156.374 373.296 156.226 373.379C155.818 373.609 155.406 373.833 154.957 374.007C154.772 374.079 154.567 374.117 154.375 374.179C153.934 374.318 153.498 374.464 153.023 374.547C152.903 374.568 152.78 374.583 152.656 374.595L151.898 374.651C151.576 374.675 151.272 374.739 150.937 374.739H134.835C134.141 374.739 133.478 374.668 132.837 374.56C132.813 374.556 132.79 374.552 132.768 374.549C130.269 374.109 128.194 372.877 126.74 371.018C126.724 371.018 126.724 370.999 126.707 370.982C125.246 369.103 124.42 366.576 124.42 363.61V348.11C124.42 341.457 128.615 337 134.835 337H150.937ZM150.937 339.632H134.835C130.075 339.632 126.999 342.967 126.999 348.11V363.61C126.999 365.053 127.261 366.342 127.71 367.457C127.767 367.388 131.346 362.931 131.362 362.916C132.641 361.425 135.04 359.202 138.19 360.547C138.948 360.868 139.613 361.319 140.222 361.715C141.281 362.438 141.903 362.778 142.55 362.721C142.818 362.683 143.069 362.602 143.307 362.451C144.338 361.802 147.252 357.462 147.427 357.226C149.441 354.547 152.544 353.83 155.131 355.415C155.304 355.521 156.013 356.017 156.782 356.577L157.362 357.003C157.938 357.431 158.481 357.848 158.79 358.115V348.11C158.79 342.967 155.714 339.632 150.937 339.632ZM136.39 344.547C137.678 344.547 138.846 345.101 139.682 345.984C140.521 346.836 141.047 348.011 141.047 349.293C141.047 351.849 138.953 353.982 136.438 353.982C134.227 353.982 132.342 352.332 131.92 350.196C131.85 349.875 131.811 349.546 131.811 349.205C131.811 346.63 133.858 344.547 136.39 344.547Z" fill="#F4E29B"/>
<path d="M351.635 409C357.874 409 362.066 413.457 362.066 420.11V435.61C362.066 435.895 362.016 436.15 362.001 436.425C361.992 436.585 361.994 436.746 361.981 436.906C361.973 436.978 361.953 437.044 361.946 437.116C361.885 437.708 361.79 438.274 361.659 438.823C361.626 438.971 361.587 439.112 361.548 439.256C361.401 439.788 361.227 440.295 361.018 440.78C360.957 440.916 360.891 441.046 360.828 441.18C360.603 441.643 360.359 442.086 360.076 442.497L359.803 442.86C359.509 443.248 359.202 443.62 358.855 443.958C358.742 444.067 358.615 444.162 358.497 444.265C358.14 444.579 357.776 444.879 357.375 445.135C357.231 445.228 357.072 445.296 356.924 445.379C356.516 445.609 356.104 445.833 355.655 446.007C355.471 446.079 355.265 446.117 355.073 446.179C354.632 446.318 354.196 446.464 353.721 446.547C353.602 446.568 353.479 446.583 353.354 446.595L352.596 446.651C352.275 446.675 351.97 446.739 351.635 446.739H335.534C334.839 446.739 334.176 446.668 333.535 446.56C333.511 446.556 333.489 446.552 333.466 446.549C330.967 446.109 328.892 444.877 327.438 443.018C327.422 443.018 327.422 442.999 327.405 442.982C325.944 441.103 325.118 438.576 325.118 435.61V420.11C325.118 413.457 329.314 409 335.534 409H351.635ZM351.635 411.632H335.534C330.773 411.632 327.697 414.967 327.697 420.11V435.61C327.697 437.053 327.959 438.342 328.408 439.457C328.466 439.388 332.044 434.931 332.061 434.916C333.339 433.425 335.739 431.202 338.888 432.547C339.646 432.868 340.311 433.319 340.921 433.715C341.979 434.438 342.602 434.778 343.248 434.721C343.516 434.683 343.767 434.602 344.006 434.451C345.037 433.802 347.95 429.462 348.125 429.226C350.139 426.547 353.243 425.83 355.829 427.415C356.003 427.521 356.712 428.017 357.48 428.577L358.06 429.003C358.637 429.431 359.18 429.848 359.489 430.115V420.11C359.489 414.967 356.413 411.632 351.635 411.632ZM337.088 416.547C338.377 416.547 339.544 417.101 340.38 417.984C341.219 418.836 341.746 420.011 341.746 421.293C341.746 423.849 339.651 425.982 337.136 425.982C334.925 425.982 333.04 424.332 332.618 422.196C332.548 421.875 332.509 421.546 332.509 421.205C332.509 418.63 334.557 416.547 337.088 416.547Z" fill="#F4E29B"/>
<defs>
<filter id="filter0_d" x="0" y="0" width="545" height="281" filterUnits="userSpaceOnUse" color-interpolation-filters="sRGB">
<feFlood flood-opacity="0" result="BackgroundImageFix"/>
<feColorMatrix in="SourceAlpha" type="matrix" values="0 0 0 0 0 0 0 0 0 0 0 0 0 0 0 0 0 0 127 0"/>
<feOffset dx="11" dy="10"/>
<feGaussianBlur stdDeviation="7.5"/>
<feColorMatrix type="matrix" values="0 0 0 0 0 0 0 0 0 0 0 0 0 0 0 0 0 0 0.05 0"/>
<feBlend mode="normal" in2="BackgroundImageFix" result="effect1_dropShadow"/>
<feBlend mode="normal" in="SourceGraphic" in2="effect1_dropShadow" result="shape"/>
</filter>
<filter id="filter1_d" x="0" y="277" width="545" height="281" filterUnits="userSpaceOnUse" color-interpolation-filters="sRGB">
<feFlood flood-opacity="0" result="BackgroundImageFix"/>
<feColorMatrix in="SourceAlpha" type="matrix" values="0 0 0 0 0 0 0 0 0 0 0 0 0 0 0 0 0 0 127 0"/>
<feOffset dx="11" dy="10"/>
<feGaussianBlur stdDeviation="7.5"/>
<feColorMatrix type="matrix" values="0 0 0 0 0 0 0 0 0 0 0 0 0 0 0 0 0 0 0.05 0"/>
<feBlend mode="normal" in2="BackgroundImageFix" result="effect1_dropShadow"/>
<feBlend mode="normal" in="SourceGraphic" in2="effect1_dropShadow" result="shape"/>
</filter>
</defs>
</svg>
