<svg width="619" height="480" viewBox="0 0 619 480" fill="none" xmlns="http://www.w3.org/2000/svg">
<rect x="229.5" y="0.5" width="389" height="114" rx="9.5" fill="white" stroke="#F3F3F3"/>
<rect x="0.5" y="135.5" width="316" height="121" rx="9.5" fill="white" stroke="#F3F3F3"/>
<rect x="0.5" y="277.5" width="149" height="99" rx="9.5" fill="white" stroke="#F3F3F3"/>
<rect x="71" y="303" width="66" height="7" rx="3.5" fill="#99AFC6"/>
<rect x="71" y="321" width="29" height="5" rx="2.5" fill="#D8E1EA"/>
<rect x="105" y="321" width="15" height="5" rx="2.5" fill="#D8E1EA"/>
<rect x="71" y="337" width="49" height="5" rx="2.5" fill="#D8E1EA"/>
<rect x="167.5" y="277.5" width="149" height="99" rx="9.5" fill="white" stroke="#F3F3F3"/>
<rect x="0.5" y="0.5" width="211" height="114" rx="9.5" fill="white" stroke="#F3F3F3"/>
<path d="M143.488 78C147.382 78 150 80.508 150 84.237V93.774C150 97.5019 147.382 100 143.488 100H134.501C130.618 100 128 97.5019 128 93.774V84.237C128 80.508 130.618 78 134.501 78H143.488ZM139.935 84.292C139.616 83.973 139.088 83.973 138.769 84.292C138.45 84.622 138.45 85.139 138.769 85.469L141.497 88.175H134.512C134.05 88.175 133.687 88.549 133.687 89C133.687 89.462 134.05 89.825 134.512 89.825H141.497L138.769 92.542C138.615 92.696 138.527 92.916 138.527 93.125C138.527 93.3329 138.615 93.543 138.769 93.708C139.088 94.027 139.616 94.027 139.935 93.708L144.082 89.583C144.39 89.275 144.39 88.725 144.082 88.417L139.935 84.292Z" fill="#80EBFF"/>
<g filter="url(#filter0_d)">
<path d="M94.4199 61.4002C98.9867 61.4002 102.772 57.6569 101.865 53.1751C101.117 49.4827 99.8672 45.897 98.1397 42.521C95.1499 36.6781 90.8153 31.6311 85.4936 27.7963C80.1719 23.9616 74.0157 21.4492 67.5332 20.4665C61.0507 19.4837 54.4277 20.0588 48.2109 22.1443C41.9941 24.2299 36.3618 27.7659 31.7788 32.4608C27.1958 37.1556 23.7935 42.8745 21.8528 49.1455C19.9121 55.4165 19.4886 62.0598 20.6172 68.527C21.2693 72.2637 22.4289 75.8798 24.0536 79.2779C26.0257 83.4025 31.2989 84.107 34.9441 81.3522L59.1333 63.0712C60.5682 61.9868 62.3169 61.4002 64.1146 61.4002H94.4199Z" fill="#D8E1EA"/>
</g>
<rect x="20" y="155" width="133" height="82" rx="10" fill="#E7F2FD"/>
<rect x="165" y="155" width="133" height="82" rx="10" fill="#E7F2FD"/>
<rect x="92" y="171" width="54" height="5" rx="2.5" fill="#99AFC6"/>
<rect x="237" y="171" width="54" height="5" rx="2.5" fill="#99AFC6"/>
<rect x="128" y="18" width="54" height="6" rx="3" fill="#99AFC6"/>
<rect x="92" y="181" width="25" height="5" rx="2.5" fill="#99AFC6"/>
<rect x="237" y="181" width="25" height="5" rx="2.5" fill="#99AFC6"/>
<rect x="237" y="191" width="12" height="5" rx="2.5" fill="#99AFC6"/>
<rect x="266" y="181" width="7" height="5" rx="2.5" fill="#99AFC6"/>
<rect x="121" y="181" width="13" height="5" rx="2.5" fill="#99AFC6"/>
<rect x="128" y="30" width="25" height="6" rx="3" fill="#99AFC6"/>
<rect x="128" y="42" width="14" height="6" rx="3" fill="#99AFC6"/>
<rect x="91" y="208" width="54" height="14" rx="7" fill="#80EBFF"/>
<rect x="236" y="208" width="54" height="14" rx="7" fill="#80EBFF"/>
<rect x="104" y="213" width="28" height="4" rx="2" fill="#3CBBD2"/>
<rect x="249" y="213" width="28" height="4" rx="2" fill="#3CBBD2"/>
<rect x="35" y="170" width="50" height="52" rx="10" fill="#FFF5CB"/>
<rect x="180" y="170" width="50" height="52" rx="10" fill="#FFF5CB"/>
<path d="M63.0478 189C65.4117 189 67 190.653 67 193.122V198.871C67 198.977 66.9811 199.072 66.9755 199.174C66.972 199.233 66.9727 199.293 66.9678 199.352C66.965 199.379 66.9573 199.403 66.9545 199.43C66.9314 199.65 66.8957 199.86 66.846 200.064C66.8334 200.118 66.8187 200.171 66.804 200.224C66.748 200.421 66.6822 200.609 66.6031 200.789C66.58 200.84 66.5548 200.888 66.531 200.938C66.4456 201.109 66.3532 201.274 66.2461 201.426L66.1425 201.561C66.0312 201.705 65.915 201.843 65.7834 201.968C65.7407 202.009 65.6924 202.044 65.6476 202.082C65.5125 202.198 65.3746 202.31 65.2227 202.405C65.1681 202.439 65.1079 202.464 65.0519 202.495C64.8972 202.581 64.7411 202.664 64.571 202.728C64.501 202.755 64.4233 202.769 64.3505 202.792C64.1832 202.844 64.018 202.898 63.8381 202.929C63.7928 202.937 63.7462 202.942 63.699 202.947L63.4118 202.967C63.29 202.976 63.1745 203 63.0478 203H56.9466C56.6834 203 56.4321 202.973 56.1892 202.934C56.1801 202.932 56.1717 202.931 56.1633 202.929C55.2162 202.766 54.4301 202.309 53.8792 201.62C53.8729 201.62 53.8729 201.613 53.8666 201.606C53.3129 200.909 53 199.972 53 198.871V193.122C53 190.653 54.5897 189 56.9466 189H63.0478ZM63.0478 189.976H56.9466C55.1427 189.976 53.9772 191.213 53.9772 193.122V198.871C53.9772 199.407 54.0766 199.885 54.2467 200.299C54.2684 200.273 55.6243 198.619 55.6306 198.614C56.115 198.061 57.0243 197.236 58.2178 197.735C58.5048 197.854 58.7568 198.022 58.9878 198.169C59.3889 198.437 59.6248 198.563 59.8698 198.542C59.9713 198.528 60.0665 198.498 60.1568 198.442C60.5474 198.201 61.6513 196.591 61.7178 196.503C62.4808 195.509 63.6568 195.243 64.6368 195.831C64.7026 195.87 64.9712 196.055 65.2624 196.262L65.4822 196.42C65.7007 196.579 65.9064 196.734 66.0235 196.833V193.122C66.0235 191.213 64.858 189.976 63.0478 189.976ZM57.5355 191.8C58.0239 191.8 58.4661 192.005 58.7829 192.333C59.101 192.649 59.3004 193.085 59.3004 193.56C59.3004 194.509 58.5068 195.3 57.5538 195.3C56.7161 195.3 56.0019 194.688 55.8418 193.895C55.8153 193.776 55.8004 193.654 55.8004 193.528C55.8004 192.573 56.5764 191.8 57.5355 191.8Z" fill="#F4E29B"/>
<path d="M208.048 189C210.412 189 212 190.653 212 193.122V198.871C212 198.977 211.981 199.072 211.976 199.174C211.972 199.233 211.973 199.293 211.968 199.352C211.965 199.379 211.957 199.403 211.954 199.43C211.931 199.65 211.896 199.86 211.846 200.064C211.833 200.118 211.819 200.171 211.804 200.224C211.748 200.421 211.682 200.609 211.603 200.789C211.58 200.84 211.555 200.888 211.531 200.938C211.446 201.109 211.353 201.274 211.246 201.426L211.142 201.561C211.031 201.705 210.915 201.843 210.783 201.968C210.741 202.009 210.692 202.044 210.648 202.082C210.513 202.198 210.375 202.31 210.223 202.405C210.168 202.439 210.108 202.464 210.052 202.495C209.897 202.581 209.741 202.664 209.571 202.728C209.501 202.755 209.423 202.769 209.351 202.792C209.183 202.844 209.018 202.898 208.838 202.929C208.793 202.937 208.746 202.942 208.699 202.947L208.412 202.967C208.29 202.976 208.174 203 208.048 203H201.947C201.683 203 201.432 202.973 201.189 202.934C201.18 202.932 201.172 202.931 201.163 202.929C200.216 202.766 199.43 202.309 198.879 201.62C198.873 201.62 198.873 201.613 198.867 201.606C198.313 200.909 198 199.972 198 198.871V193.122C198 190.653 199.59 189 201.947 189H208.048ZM208.048 189.976H201.947C200.143 189.976 198.977 191.213 198.977 193.122V198.871C198.977 199.407 199.077 199.885 199.247 200.299C199.268 200.273 200.624 198.619 200.631 198.614C201.115 198.061 202.024 197.236 203.218 197.735C203.505 197.854 203.757 198.022 203.988 198.169C204.389 198.437 204.625 198.563 204.87 198.542C204.971 198.528 205.066 198.498 205.157 198.442C205.547 198.201 206.651 196.591 206.718 196.503C207.481 195.509 208.657 195.243 209.637 195.831C209.703 195.87 209.971 196.055 210.262 196.262L210.482 196.42C210.701 196.579 210.906 196.734 211.023 196.833V193.122C211.023 191.213 209.858 189.976 208.048 189.976ZM202.535 191.8C203.024 191.8 203.466 192.005 203.783 192.333C204.101 192.649 204.3 193.085 204.3 193.56C204.3 194.509 203.507 195.3 202.554 195.3C201.716 195.3 201.002 194.688 200.842 193.895C200.815 193.776 200.8 193.654 200.8 193.528C200.8 192.573 201.576 191.8 202.535 191.8Z" fill="#F4E29B"/>
<rect x="250" y="20" width="266" height="33" rx="10" fill="#D8E1EA"/>
<rect x="525" y="20" width="75" height="33" rx="10" fill="#D8E1EA"/>
<rect x="525" y="63" width="75" height="33" rx="10" fill="#D8E1EA"/>
<rect x="250" y="63" width="266" height="33" rx="10" fill="#D8E1EA"/>
<rect x="285" y="34" width="206" height="6" rx="3" fill="#99AFC6"/>
<rect x="285" y="77" width="66" height="6" rx="3" fill="#99AFC6"/>
<rect x="544" y="77" width="44" height="6" rx="3" fill="#99AFC6"/>
<rect x="544" y="34" width="25" height="6" rx="3" fill="#99AFC6"/>
<rect x="357" y="77.0923" width="134.293" height="6" rx="3" transform="rotate(-0.160548 357 77.0923)" fill="#99AFC6"/>
<circle cx="268.5" cy="36.5" r="8.5" fill="#FFF5CB"/>
<circle cx="268.5" cy="79.5" r="8.5" fill="#FFF5CB"/>
<path d="M74.9033 96.2256C77.1113 96.2256 78.6904 94.7695 78.6904 92.7393C78.6904 90.8662 77.3027 89.4854 75.4297 89.4854C74.1719 89.4854 73.2012 90.1279 72.8047 91.0918H72.7637C72.7158 88.8633 73.5498 87.5439 74.9238 87.5439C75.6963 87.5439 76.332 87.9814 76.5303 88.6377H78.5605C78.2871 87.0244 76.8174 85.9102 74.9375 85.9102C72.3877 85.9102 70.8018 87.8789 70.8018 91.1465C70.8018 92.459 71.082 93.5732 71.6289 94.4072C72.3193 95.583 73.4883 96.2256 74.9033 96.2256ZM74.8828 94.5781C73.8711 94.5781 73.085 93.7852 73.085 92.7803C73.085 91.7822 73.8643 91.0371 74.8896 91.0371C75.9219 91.0371 76.6807 91.7822 76.6807 92.8008C76.6807 93.792 75.8877 94.5781 74.8828 94.5781ZM83.7969 96.2188C86.2783 96.2188 87.7822 94.2295 87.7822 91.0439C87.7822 87.8584 86.2646 85.9102 83.7969 85.9102C81.3291 85.9102 79.8047 87.8652 79.8047 91.0508C79.8047 94.2432 81.3154 96.2188 83.7969 96.2188ZM83.7969 94.5645C82.6211 94.5645 81.9033 93.293 81.9033 91.0508C81.9033 88.8291 82.6348 87.5645 83.7969 87.5645C84.9658 87.5645 85.6836 88.8223 85.6836 91.0508C85.6836 93.2998 84.9727 94.5645 83.7969 94.5645ZM93.1621 88.501C93.1621 86.9355 92.2939 85.9443 90.9131 85.9443C89.5391 85.9443 88.6641 86.9355 88.6641 88.501C88.6641 90.0732 89.5391 91.0576 90.9131 91.0576C92.2939 91.0576 93.1621 90.0732 93.1621 88.501ZM90.9131 89.8477C90.4688 89.8477 90.1953 89.3418 90.1953 88.4941C90.1953 87.6465 90.4688 87.1338 90.9131 87.1338C91.3574 87.1338 91.6309 87.6465 91.6309 88.4941C91.6309 89.3418 91.3574 89.8477 90.9131 89.8477ZM91.2959 96L94.7686 91.2354L98.4873 86.1357H96.8398L93.4697 90.7568L89.6416 96H91.2959ZM99.4648 93.5801C99.4648 92.0146 98.5967 91.0234 97.2158 91.0234C95.8418 91.0234 94.9668 92.0146 94.9668 93.5801C94.9668 95.1523 95.8418 96.1436 97.2158 96.1436C98.5967 96.1436 99.4648 95.1523 99.4648 93.5801ZM97.2158 94.9268C96.7715 94.9268 96.498 94.4209 96.498 93.5732C96.498 92.7256 96.7715 92.2129 97.2158 92.2129C97.6602 92.2129 97.9336 92.7256 97.9336 93.5732C97.9336 94.4209 97.6602 94.9268 97.2158 94.9268Z" fill="#99AFC6"/>
<rect x="336.5" y="135.5" width="282" height="314" rx="9.5" fill="white" stroke="#F3F3F3"/>
<g filter="url(#filter1_d)">
<mask id="mask0" mask-type="alpha" maskUnits="userSpaceOnUse" x="354" y="153" width="247" height="124">
<path d="M354 153H601V277H365C358.925 277 354 272.075 354 266V153Z" fill="#C4C4C4"/>
</mask>
<g mask="url(#mask0)">
<path d="M356 267C356 272.523 360.477 277 366 277H405V153H356V267Z" fill="#F7FBFF"/>
<path d="M405 277H454V153H405V277Z" fill="#ECF7FF"/>
<path d="M454 277H503V153H454V277Z" fill="#D1ECFF"/>
<path d="M503 277H552V153H503V277Z" fill="#B3DEFE"/>
<path d="M552 277H599C600.105 277 601 276.105 601 275V163C601 157.477 596.523 153 591 153H552V277Z" fill="#89CDFF"/>
<g filter="url(#filter2_d)">
<path d="M360.5 273C407.833 272.667 537 240.2 597 157" stroke="url(#paint0_linear)" stroke-width="3" stroke-linecap="round"/>
</g>
<g filter="url(#filter3_d)">
<path d="M356 155V265C356 270.523 360.477 275 366 275H599" stroke="#99AFC6" stroke-width="4" stroke-linecap="round"/>
</g>
</g>
</g>
<rect x="403" y="287" width="3" height="9" rx="1.5" fill="#EEEEEE"/>
<rect x="354" y="287" width="3" height="9" rx="1.5" fill="#EEEEEE"/>
<rect x="452" y="287" width="3" height="9" rx="1.5" fill="#EEEEEE"/>
<rect x="501" y="287" width="3" height="9" rx="1.5" fill="#EEEEEE"/>
<rect x="550" y="287" width="3" height="9" rx="1.5" fill="#EEEEEE"/>
<rect x="599" y="287" width="3" height="9" rx="1.5" fill="#EEEEEE"/>
<rect x="354.104" y="338" width="130" height="28" rx="10" fill="#D2E0F1"/>
<rect x="354" y="320" width="71.5554" height="7.80559" rx="3.90279" fill="#ADC6E2"/>
<rect x="357" y="390" width="10" height="10" rx="2" fill="#99AFC6"/>
<rect x="491" y="390" width="10" height="10" rx="2" fill="#99AFC6"/>
<rect x="357" y="411" width="10" height="10" rx="2" fill="#99AFC6"/>
<rect x="491" y="411" width="10" height="10" rx="2" fill="#99AFC6"/>
<rect x="380" y="391" width="86" height="7" rx="3.5" fill="#D8E1EA"/>
<rect x="514" y="391" width="86" height="7" rx="3.5" fill="#D8E1EA"/>
<rect x="380" y="412" width="35" height="7" rx="3.5" fill="#D8E1EA"/>
<rect x="420" y="412" width="46" height="7" rx="3.5" fill="#D8E1EA"/>
<rect x="514" y="412" width="46" height="7" rx="3.5" fill="#D8E1EA"/>
<circle cx="578" cy="344" r="24" fill="#FFF5CB"/>
<path d="M580.247 335.732C580.608 335.732 580.901 336.024 580.901 336.384C580.901 336.714 580.655 336.987 580.336 337.03L580.247 337.036H573.909C571.768 337.036 570.391 338.449 570.312 340.654L570.308 340.857V347.884C570.308 350.146 571.602 351.608 573.715 351.692L573.909 351.696H581.413C583.555 351.696 584.931 350.288 585.01 348.086L585.013 347.884V341.764C585.013 341.404 585.306 341.112 585.667 341.112C585.999 341.112 586.272 341.357 586.315 341.675L586.321 341.764V347.884C586.321 350.831 584.455 352.902 581.617 352.997L581.413 353H573.909C571.004 353 569.091 351.009 569.003 348.093L569 347.884V340.857C569 337.908 570.868 335.831 573.705 335.736L573.909 335.732H580.247ZM582.093 341.67C582.352 341.871 582.419 342.227 582.263 342.504L582.209 342.585L579.655 345.872C579.452 346.132 579.092 346.197 578.814 346.039L578.733 345.985L576.275 344.06L574.068 346.92C573.868 347.18 573.51 347.247 573.232 347.093L573.151 347.039C572.891 346.84 572.823 346.483 572.978 346.206L573.031 346.125L575.642 342.743C575.843 342.482 576.204 342.415 576.483 342.573L576.564 342.628L579.023 344.554L581.175 341.786C581.396 341.502 581.807 341.45 582.093 341.67ZM584.67 335C585.957 335 587 336.04 587 337.323C587 338.606 585.957 339.646 584.67 339.646C583.382 339.646 582.339 338.606 582.339 337.323C582.339 336.04 583.382 335 584.67 335ZM584.67 336.304C584.105 336.304 583.647 336.76 583.647 337.323C583.647 337.886 584.105 338.342 584.67 338.342C585.234 338.342 585.692 337.886 585.692 337.323C585.692 336.76 585.234 336.304 584.67 336.304Z" fill="#F4E29B"/>
<path d="M20 278H60V280C60 281.105 59.1046 282 58 282H22C20.8954 282 20 281.105 20 280V278Z" fill="#80EBFF"/>
<path d="M20 312C20 306.477 24.4772 302 30 302H50C55.5228 302 60 306.477 60 312V332C60 337.523 55.5228 342 50 342H30C24.4772 342 20 337.523 20 332V312Z" fill="#D8E1EA"/>
<path d="M187 312C187 306.477 191.477 302 197 302H217C222.523 302 227 306.477 227 312V332C227 337.523 222.523 342 217 342H197C191.477 342 187 337.523 187 332V312Z" fill="#D8E1EA"/>
<path d="M187 278H227V280C227 281.105 226.105 282 225 282H189C187.895 282 187 281.105 187 280V278Z" fill="#80EBFF"/>
<path d="M44.44 312C44.8099 312 45.1157 312.276 45.1641 312.633L45.1708 312.733L45.1708 313.561C48.1718 313.765 50.0095 315.695 50 318.81V327.723C50 331.025 47.9367 333 44.6205 333H36.3794C33.0671 333 31 330.992 31 327.649V318.81C31 315.696 32.8435 313.766 35.8381 313.561L35.8382 312.733C35.8382 312.328 36.1653 312 36.5689 312C36.9389 312 37.2446 312.276 37.293 312.633L37.2997 312.733L37.2996 313.542H43.7089L43.7092 312.733C43.7092 312.328 44.0364 312 44.44 312ZM48.5381 320.697H32.4609L32.4615 327.649C32.4615 330.091 33.7752 331.446 36.1395 331.531L36.3794 331.535H44.6205C47.1443 331.535 48.5384 330.201 48.5384 327.723L48.5381 320.697ZM44.8371 326.843C45.2407 326.843 45.5679 327.171 45.5679 327.575C45.5679 327.946 45.293 328.253 44.9363 328.301L44.8371 328.308C44.4245 328.308 44.0974 327.98 44.0974 327.575C44.0974 327.205 44.3723 326.898 44.729 326.85L44.8371 326.843ZM40.5135 326.843C40.9171 326.843 41.2443 327.171 41.2443 327.575C41.2443 327.946 40.9693 328.253 40.6126 328.301L40.5135 328.308C40.1009 328.308 39.7737 327.98 39.7737 327.575C39.7737 327.205 40.0486 326.898 40.4053 326.85L40.5135 326.843ZM36.1808 326.843C36.5844 326.843 36.9116 327.171 36.9116 327.575C36.9116 327.946 36.6366 328.253 36.28 328.301L36.1718 328.308C35.7682 328.308 35.441 327.98 35.441 327.575C35.441 327.205 35.7159 326.898 36.0726 326.85L36.1808 326.843ZM44.8371 323.047C45.2407 323.047 45.5679 323.375 45.5679 323.779C45.5679 324.15 45.293 324.457 44.9363 324.505L44.8371 324.512C44.4245 324.512 44.0974 324.184 44.0974 323.779C44.0974 323.408 44.3723 323.102 44.729 323.053L44.8371 323.047ZM40.5135 323.047C40.9171 323.047 41.2443 323.375 41.2443 323.779C41.2443 324.15 40.9693 324.457 40.6126 324.505L40.5135 324.512C40.1009 324.512 39.7737 324.184 39.7737 323.779C39.7737 323.408 40.0486 323.102 40.4053 323.053L40.5135 323.047ZM36.1808 323.047C36.5844 323.047 36.9116 323.375 36.9116 323.779C36.9116 324.15 36.6366 324.457 36.28 324.505L36.1718 324.512C35.7682 324.512 35.441 324.184 35.441 323.779C35.441 323.408 35.7159 323.102 36.0726 323.053L36.1808 323.047ZM43.7089 315.007H37.2996L37.2997 315.947C37.2997 316.351 36.9725 316.679 36.5689 316.679C36.199 316.679 35.8932 316.404 35.8448 316.046L35.8382 315.947L35.8371 315.029C33.6588 315.211 32.4615 316.522 32.4615 318.81L32.4609 319.231H48.5381L48.5384 318.808C48.5454 316.518 47.3542 315.21 45.1708 315.029L45.1708 315.947C45.1708 316.351 44.8436 316.679 44.44 316.679C44.07 316.679 43.7643 316.404 43.7159 316.046L43.7092 315.947L43.7089 315.007Z" fill="#99AFC6"/>
<path d="M215.038 312C216.126 312 217 312.996 217 314.215V315.839C217 316.431 216.792 316.998 216.42 317.412L209.991 324.616L209.992 330.071C209.992 330.319 209.878 330.548 209.694 330.682L209.611 330.734L205.39 332.929C204.951 333.158 204.445 332.804 204.445 332.267L204.445 324.599L198.523 317.383C198.224 317.018 198.043 316.552 198.007 316.061L198 315.876V314.215C198 312.996 198.874 312 199.962 312H215.038ZM215.038 313.465H199.962C199.615 313.465 199.326 313.795 199.326 314.215V315.876C199.326 316.072 199.39 316.258 199.505 316.398L205.599 323.824C205.71 323.959 205.771 324.135 205.771 324.317L205.771 331.111L208.666 329.606L208.666 324.317C208.666 324.163 208.71 324.014 208.79 323.89L208.857 323.802L215.477 316.382C215.602 316.242 215.674 316.047 215.674 315.839V314.215C215.674 313.795 215.385 313.465 215.038 313.465Z" fill="#99AFC6"/>
<rect x="238" y="303" width="66" height="7" rx="3.5" fill="#99AFC6"/>
<rect x="238" y="321" width="49" height="5" rx="2.5" fill="#D8E1EA"/>
<rect x="238" y="337" width="49" height="5" rx="2.5" fill="#D8E1EA"/>
<defs>
<filter id="filter0_d" x="15" y="19" width="92" height="73" filterUnits="userSpaceOnUse" color-interpolation-filters="sRGB">
<feFlood flood-opacity="0" result="BackgroundImageFix"/>
<feColorMatrix in="SourceAlpha" type="matrix" values="0 0 0 0 0 0 0 0 0 0 0 0 0 0 0 0 0 0 127 0"/>
<feOffset dy="4"/>
<feGaussianBlur stdDeviation="2.5"/>
<feColorMatrix type="matrix" values="0 0 0 0 0 0 0 0 0 0 0 0 0 0 0 0 0 0 0.1 0"/>
<feBlend mode="normal" in2="BackgroundImageFix" result="effect1_dropShadow"/>
<feBlend mode="normal" in="SourceGraphic" in2="effect1_dropShadow" result="shape"/>
</filter>
<filter id="filter1_d" x="344" y="147" width="267" height="144" filterUnits="userSpaceOnUse" color-interpolation-filters="sRGB">
<feFlood flood-opacity="0" result="BackgroundImageFix"/>
<feColorMatrix in="SourceAlpha" type="matrix" values="0 0 0 0 0 0 0 0 0 0 0 0 0 0 0 0 0 0 127 0"/>
<feOffset dy="4"/>
<feGaussianBlur stdDeviation="5"/>
<feColorMatrix type="matrix" values="0 0 0 0 0 0 0 0 0 0 0 0 0 0 0 0 0 0 0.1 0"/>
<feBlend mode="normal" in2="BackgroundImageFix" result="effect1_dropShadow"/>
<feBlend mode="normal" in="SourceGraphic" in2="effect1_dropShadow" result="shape"/>
</filter>
<filter id="filter2_d" x="355" y="155.5" width="247.5" height="127" filterUnits="userSpaceOnUse" color-interpolation-filters="sRGB">
<feFlood flood-opacity="0" result="BackgroundImageFix"/>
<feColorMatrix in="SourceAlpha" type="matrix" values="0 0 0 0 0 0 0 0 0 0 0 0 0 0 0 0 0 0 127 0"/>
<feOffset dy="4"/>
<feGaussianBlur stdDeviation="2"/>
<feColorMatrix type="matrix" values="0 0 0 0 0 0 0 0 0 0 0 0 0 0 0 0 0 0 0.25 0"/>
<feBlend mode="normal" in2="BackgroundImageFix" result="effect1_dropShadow"/>
<feBlend mode="normal" in="SourceGraphic" in2="effect1_dropShadow" result="shape"/>
</filter>
<filter id="filter3_d" x="350" y="151" width="255" height="132" filterUnits="userSpaceOnUse" color-interpolation-filters="sRGB">
<feFlood flood-opacity="0" result="BackgroundImageFix"/>
<feColorMatrix in="SourceAlpha" type="matrix" values="0 0 0 0 0 0 0 0 0 0 0 0 0 0 0 0 0 0 127 0"/>
<feOffset dy="2"/>
<feGaussianBlur stdDeviation="2"/>
<feColorMatrix type="matrix" values="0 0 0 0 0 0 0 0 0 0 0 0 0 0 0 0 0 0 0.05 0"/>
<feBlend mode="normal" in2="BackgroundImageFix" result="effect1_dropShadow"/>
<feBlend mode="normal" in="SourceGraphic" in2="effect1_dropShadow" result="shape"/>
</filter>
<linearGradient id="paint0_linear" x1="597" y1="157" x2="360" y2="273" gradientUnits="userSpaceOnUse">
<stop stop-color="#444A50"/>
<stop offset="1" stop-color="#99AFC6"/>
</linearGradient>
</defs>
</svg>
