<svg width="736" height="614" viewBox="0 0 736 614" fill="none" xmlns="http://www.w3.org/2000/svg">
<g filter="url(#filter0_d)">
<rect width="700" height="580" rx="30" fill="white"/>
<rect x="0.5" y="0.5" width="699" height="579" rx="29.5" stroke="#F3F3F3"/>
</g>
<rect x="43" y="156" width="137" height="198" rx="10" fill="#F6FBFF"/>
<circle cx="45" cy="40" r="5" fill="#80EBFF"/>
<circle cx="65" cy="40" r="5" fill="#FD7A8C"/>
<circle cx="85" cy="40" r="5" fill="#FEE895"/>
<rect x="138.5" y="25.5" width="524" height="29" rx="14.5" fill="#F7FBFF" stroke="#E9E9E9"/>
<rect x="1" y="80" width="698" height="1" fill="#ECEAEA"/>
<rect x="42" y="105" width="120" height="29" rx="5" fill="#F6FBFF"/>
<rect x="56.9297" y="113.536" width="14.192" height="2.1288" rx="1.0644" fill="#ADC6E2"/>
<rect x="56.9297" y="118.503" width="14.192" height="2.1288" rx="1.0644" fill="#ADC6E2"/>
<rect x="56.9297" y="123.47" width="14.192" height="2.1288" rx="1.0644" fill="#ADC6E2"/>
<rect x="545" y="107" width="118" height="26" rx="13" stroke="#DBEDFF" stroke-width="2"/>
<rect x="190" y="115" width="70" height="10" rx="5" fill="#684289"/>
<rect x="275.151" y="116" width="70" height="7" rx="3.5" fill="#D8E1EA"/>
<rect x="360.303" y="116" width="70" height="7" rx="3.5" fill="#D8E1EA"/>
<rect x="446" y="116" width="70" height="7" rx="3.5" fill="#D8E1EA"/>
<path d="M652.083 121.19C651.748 121.117 651.482 121.273 651.247 121.409C651.006 121.55 650.548 121.921 650.285 121.826C648.941 121.273 647.676 120.096 647.129 118.746C647.032 118.478 647.402 118.017 647.541 117.773C647.677 117.537 647.829 117.269 647.76 116.931C647.697 116.627 646.883 115.591 646.595 115.307C646.405 115.12 646.21 115.017 646.011 115.001C645.26 114.969 644.422 115.97 644.275 116.21C643.906 116.721 643.908 117.401 644.281 118.225C645.179 120.439 648.574 123.781 650.796 124.712C651.206 124.904 651.581 125 651.918 125C652.248 125 652.542 124.908 652.794 124.726C652.984 124.616 654.027 123.736 653.999 122.965C653.983 122.769 653.88 122.572 653.696 122.382C653.414 122.091 652.385 121.253 652.083 121.19Z" fill="#88C3FE"/>
<rect x="636" y="107" width="27" height="26" rx="13" stroke="#88C3FE" stroke-width="2"/>
<path d="M160.194 35C157.54 35 155.388 37.1041 155.388 39.6996C155.388 40.9245 155.868 42.04 156.653 42.8765L155.109 44.3818C154.964 44.523 154.964 44.7521 155.108 44.8937C155.239 45.0223 155.445 45.0343 155.59 44.9293L155.631 44.8943L157.194 43.3709C158.016 44.0144 159.059 44.3993 160.194 44.3993C162.848 44.3993 165 42.2952 165 39.6996C165 37.1041 162.848 35 160.194 35ZM160.194 35.7239C162.44 35.7239 164.26 37.5039 164.26 39.6996C164.26 41.8954 162.44 43.6754 160.194 43.6754C157.949 43.6754 156.129 41.8954 156.129 39.6996C156.129 37.5039 157.949 35.7239 160.194 35.7239Z" fill="#D5D5D5"/>
<path d="M119.5 176H65.5C64.1193 176 63 177.119 63 178.5C63 179.881 64.1193 181 65.5 181H119.5C120.881 181 122 179.881 122 178.5C122 177.119 120.881 176 119.5 176Z" fill="#ADC6E2"/>
<path d="M97.5 197H65.5C64.1193 197 63 198.119 63 199.5C63 200.881 64.1193 202 65.5 202H97.5C98.8807 202 100 200.881 100 199.5C100 198.119 98.8807 197 97.5 197Z" fill="#D2E0F1"/>
<path d="M97.5 223H65.5C64.1193 223 63 224.119 63 225.5C63 226.881 64.1193 228 65.5 228H97.5C98.8807 228 100 226.881 100 225.5C100 224.119 98.8807 223 97.5 223Z" fill="#D2E0F1"/>
<path d="M97.5 236H65.5C64.1193 236 63 237.119 63 238.5C63 239.881 64.1193 241 65.5 241H97.5C98.8807 241 100 239.881 100 238.5C100 237.119 98.8807 236 97.5 236Z" fill="#D2E0F1"/>
<path d="M97.5 210H65.5C64.1193 210 63 211.119 63 212.5C63 213.881 64.1193 215 65.5 215H97.5C98.8807 215 100 213.881 100 212.5C100 211.119 98.8807 210 97.5 210Z" fill="#D2E0F1"/>
<path d="M103.939 123V115.954H102.484L100.326 121.271H100.287L98.1289 115.954H96.6689V123H97.8066V118H97.8408L99.877 122.941H100.736L102.772 118H102.807V123H103.939ZM107.492 118.659C108.19 118.659 108.659 119.172 108.683 119.904H106.266C106.315 119.182 106.808 118.659 107.492 118.659ZM108.688 121.452C108.556 121.882 108.126 122.165 107.56 122.165C106.764 122.165 106.256 121.608 106.256 120.778V120.705H109.874V120.31C109.874 118.737 108.956 117.717 107.487 117.717C105.993 117.717 105.045 118.796 105.045 120.432C105.045 122.082 105.983 123.103 107.536 123.103C108.761 123.103 109.669 122.429 109.826 121.452H108.688ZM114.242 123H115.453V117.824H114.242V119.865H112.054V117.824H110.844V123H112.054V120.803H114.242V123ZM121.119 123.103C122.653 123.103 123.595 122.102 123.595 120.412C123.595 118.728 122.643 117.717 121.119 117.717C119.777 117.717 118.878 118.518 118.688 119.865H117.858V117.824H116.647V123H117.858V120.803H118.668C118.81 122.253 119.718 123.103 121.119 123.103ZM121.114 122.116C120.333 122.116 119.884 121.501 119.884 120.412C119.884 119.328 120.338 118.703 121.114 118.703C121.896 118.703 122.35 119.328 122.35 120.412C122.35 121.501 121.896 122.116 121.114 122.116Z" fill="#ADC6E2"/>
<path d="M182.715 38.6494C183.208 38.6494 183.481 38.8789 183.481 39.2842C183.481 39.7139 183.188 39.9385 182.622 39.9385H181.733V38.6494H182.715ZM182.695 40.71C183.35 40.71 183.687 40.959 183.687 41.4424C183.687 41.916 183.369 42.1748 182.793 42.1748H181.733V40.71H182.695ZM180.542 43H183.037C184.185 43 184.897 42.4189 184.897 41.5059C184.897 40.8564 184.438 40.3779 183.76 40.29V40.251C184.272 40.1631 184.668 39.6797 184.668 39.1377C184.668 38.3174 184.043 37.8242 182.998 37.8242H180.542V43ZM187.79 42.165C187.263 42.165 186.912 41.8965 186.912 41.4717C186.912 41.0615 187.248 40.7979 187.834 40.7588L189.031 40.6855V41.0811C189.031 41.7061 188.479 42.165 187.79 42.165ZM187.424 43.083C188.088 43.083 188.738 42.7363 189.036 42.1748H189.06V43H190.232V39.4355C190.232 38.3955 189.397 37.7168 188.113 37.7168C186.794 37.7168 185.969 38.4102 185.915 39.377H187.043C187.121 38.9473 187.488 38.6689 188.064 38.6689C188.664 38.6689 189.031 38.9814 189.031 39.5234V39.8945L187.663 39.9727C186.404 40.0508 185.696 40.6025 185.696 41.5205C185.696 42.4531 186.423 43.083 187.424 43.083ZM191.396 43H198.247V37.8242H197.036V42.0625H195.425V37.8242H194.214V42.0625H192.607V37.8242H191.396V43ZM203.962 39.5283C203.821 38.5176 202.995 37.7168 201.692 37.7168C200.188 37.7168 199.226 38.7715 199.226 40.4121C199.226 42.0771 200.188 43.1025 201.701 43.1025C202.966 43.1025 203.825 42.3848 203.972 41.3008H202.82C202.683 41.8184 202.297 42.1211 201.711 42.1211C200.945 42.1211 200.451 41.4814 200.451 40.4121C200.451 39.3623 200.94 38.7031 201.706 38.7031C202.312 38.7031 202.683 39.0645 202.81 39.5283H203.962ZM206.782 42.165C206.254 42.165 205.903 41.8965 205.903 41.4717C205.903 41.0615 206.24 40.7979 206.826 40.7588L208.022 40.6855V41.0811C208.022 41.7061 207.47 42.165 206.782 42.165ZM206.416 43.083C207.08 43.083 207.729 42.7363 208.027 42.1748H208.051V43H209.223V39.4355C209.223 38.3955 208.388 37.7168 207.104 37.7168C205.786 37.7168 204.961 38.4102 204.907 39.377H206.035C206.113 38.9473 206.479 38.6689 207.055 38.6689C207.656 38.6689 208.022 38.9814 208.022 39.5234V39.8945L206.655 39.9727C205.395 40.0508 204.687 40.6025 204.687 41.5205C204.687 42.4531 205.415 43.083 206.416 43.083ZM211.579 43L213.83 39.5186H213.869V43H215.061V37.8242H213.869L211.618 41.2812H211.579V37.8242H210.388V43H211.579ZM211.12 35.5146C211.12 36.457 211.789 37.0869 212.785 37.0869C213.781 37.0869 214.45 36.457 214.45 35.5146H213.669C213.664 36.0566 213.322 36.457 212.785 36.457C212.248 36.457 211.906 36.0566 211.901 35.5146H211.12ZM220.302 37.8242H215.912V38.7617H217.504V43H218.71V38.7617H220.302V37.8242ZM221.725 43.0537C222.116 43.0537 222.424 42.7461 222.424 42.3506C222.424 41.96 222.116 41.6475 221.725 41.6475C221.33 41.6475 221.022 41.96 221.022 42.3506C221.022 42.7461 221.33 43.0537 221.725 43.0537ZM226.562 37.7363C225.81 37.7363 225.224 38.1172 224.931 38.7178H224.906V37.8242H223.72V44.7041H224.936V42.1406H224.96C225.243 42.7217 225.829 43.083 226.581 43.083C227.88 43.083 228.71 42.0625 228.71 40.4121C228.71 38.7568 227.875 37.7363 226.562 37.7363ZM226.191 42.0869C225.434 42.0869 224.931 41.4277 224.926 40.4121C224.931 39.4062 225.434 38.7373 226.191 38.7373C226.977 38.7373 227.465 39.3916 227.465 40.4121C227.465 41.4375 226.977 42.0869 226.191 42.0869ZM230.138 44.9238C231.32 44.9238 231.891 44.4893 232.336 43.2051L234.206 37.8242H232.926L231.706 41.9648H231.686L230.465 37.8242H229.137L230.978 43.0049C230.983 43.0195 230.91 43.2783 230.91 43.293C230.773 43.7715 230.514 43.9619 230.011 43.9619C229.938 43.9619 229.723 43.957 229.66 43.9424V44.9043C229.723 44.9189 230.07 44.9238 230.138 44.9238Z" fill="#ADC6E2"/>
<path d="M575.528 123V115.954H569.669V123H570.934V117.023H574.273V123H575.528ZM579.134 123.103C580.653 123.103 581.639 122.092 581.639 120.412C581.639 118.737 580.643 117.717 579.134 117.717C577.625 117.717 576.629 118.742 576.629 120.412C576.629 122.092 577.616 123.103 579.134 123.103ZM579.134 122.141C578.363 122.141 577.865 121.516 577.865 120.412C577.865 119.313 578.368 118.684 579.134 118.684C579.906 118.684 580.404 119.313 580.404 120.412C580.404 121.516 579.906 122.141 579.134 122.141ZM584.581 123.103C585.914 123.103 586.763 122.458 586.763 121.457C586.763 120.876 586.422 120.451 585.772 120.295V120.256C586.27 120.124 586.583 119.689 586.583 119.167C586.583 118.278 585.87 117.717 584.566 117.717C583.355 117.717 582.564 118.317 582.462 119.294H583.614C583.682 118.894 584.034 118.659 584.566 118.659C585.128 118.659 585.396 118.918 585.396 119.289C585.396 119.709 585.108 119.914 584.556 119.914H583.844V120.754H584.581C585.23 120.754 585.557 120.969 585.557 121.438C585.557 121.857 585.206 122.146 584.581 122.146C584.014 122.146 583.643 121.906 583.536 121.462H582.354C582.452 122.482 583.306 123.103 584.581 123.103ZM589.935 118.649C590.428 118.649 590.701 118.879 590.701 119.284C590.701 119.714 590.408 119.938 589.842 119.938H588.953V118.649H589.935ZM589.915 120.71C590.57 120.71 590.906 120.959 590.906 121.442C590.906 121.916 590.589 122.175 590.013 122.175H588.953V120.71H589.915ZM587.762 123H590.257C591.404 123 592.117 122.419 592.117 121.506C592.117 120.856 591.658 120.378 590.98 120.29V120.251C591.492 120.163 591.888 119.68 591.888 119.138C591.888 118.317 591.263 117.824 590.218 117.824H587.762V123ZM595.411 123.103C596.929 123.103 597.916 122.092 597.916 120.412C597.916 118.737 596.92 117.717 595.411 117.717C593.902 117.717 592.906 118.742 592.906 120.412C592.906 122.092 593.892 123.103 595.411 123.103ZM595.411 122.141C594.639 122.141 594.141 121.516 594.141 120.412C594.141 119.313 594.644 118.684 595.411 118.684C596.182 118.684 596.68 119.313 596.68 120.412C596.68 121.516 596.182 122.141 595.411 122.141ZM602.288 123H603.499V117.824H602.288V119.865H600.101V117.824H598.89V123H600.101V120.803H602.288V123ZM605.884 123L608.135 119.519H608.174V123H609.366V117.824H608.174L605.923 121.281H605.884V117.824H604.693V123H605.884ZM614.607 117.824H610.218V118.762H611.809V123H613.015V118.762H614.607V117.824ZM617.515 120.3C618.076 120.3 618.447 120.651 618.447 121.184C618.447 121.711 618.081 122.067 617.515 122.067H616.67V120.3H617.515ZM615.459 123H617.671C618.877 123 619.654 122.297 619.654 121.188C619.654 120.08 618.877 119.377 617.671 119.377H616.67V117.824H615.459V123Z" fill="#ADC6E2"/>
<defs>
<filter id="filter0_d" x="0" y="0" width="736" height="614" filterUnits="userSpaceOnUse" color-interpolation-filters="sRGB">
<feFlood flood-opacity="0" result="BackgroundImageFix"/>
<feColorMatrix in="SourceAlpha" type="matrix" values="0 0 0 0 0 0 0 0 0 0 0 0 0 0 0 0 0 0 127 0"/>
<feOffset dx="19" dy="17"/>
<feGaussianBlur stdDeviation="8.5"/>
<feColorMatrix type="matrix" values="0 0 0 0 0 0 0 0 0 0 0 0 0 0 0 0 0 0 0.05 0"/>
<feBlend mode="normal" in2="BackgroundImageFix" result="effect1_dropShadow"/>
<feBlend mode="normal" in="SourceGraphic" in2="effect1_dropShadow" result="shape"/>
</filter>
</defs>
</svg>
