<svg width="649" height="510" viewBox="0 0 649 510" fill="none" xmlns="http://www.w3.org/2000/svg">
<g filter="url(#filter0_d)">
<rect x="183" y="5" width="440" height="257" rx="10" fill="white"/>
<rect x="183.5" y="5.5" width="439" height="256" rx="9.5" stroke="#F3F3F3"/>
</g>
<rect x="203" y="25" width="215" height="141" rx="10" fill="#FFF5CB"/>
<rect x="203" y="176" width="65" height="65" rx="10" fill="#FFF5CB"/>
<rect x="278" y="176" width="65" height="65" rx="10" fill="#FFF5CB"/>
<rect x="353" y="175" width="65" height="65" rx="10" fill="#FFF5CB"/>
<rect x="437" y="194" width="140" height="28" rx="10" fill="#80EBFF"/>
<rect x="437" y="25" width="70.9599" height="9.93439" rx="4.96719" fill="#684289"/>
<rect x="437" y="45" width="91" height="8" rx="4" fill="#99AFC6"/>
<rect x="437" y="82" width="172" height="7" rx="3.5" fill="#D8E1EA"/>
<rect x="437" y="99" width="34" height="7" rx="3.5" fill="#D8E1EA"/>
<rect x="437" y="148" width="34" height="7" rx="3.5" fill="#D8E1EA"/>
<rect x="481" y="99" width="128" height="7" rx="3.5" fill="#D8E1EA"/>
<rect x="437" y="116" width="128" height="7" rx="3.5" fill="#D8E1EA"/>
<rect x="437" y="133" width="82" height="7" rx="3.5" fill="#D8E1EA"/>
<rect x="472" y="204" width="70" height="7" rx="3.5" fill="#3CBBD2"/>
<path d="M318.708 76C325.462 76 330 80.724 330 87.776V104.204C330 104.506 329.946 104.776 329.93 105.068C329.92 105.238 329.922 105.408 329.908 105.578C329.9 105.654 329.878 105.724 329.87 105.8C329.804 106.428 329.702 107.028 329.56 107.61C329.524 107.766 329.482 107.916 329.44 108.068C329.28 108.632 329.092 109.17 328.866 109.684C328.8 109.828 328.728 109.966 328.66 110.108C328.416 110.598 328.152 111.068 327.846 111.504L327.55 111.888C327.232 112.3 326.9 112.694 326.524 113.052C326.402 113.168 326.264 113.268 326.136 113.378C325.75 113.71 325.356 114.028 324.922 114.3C324.766 114.398 324.594 114.47 324.434 114.558C323.992 114.802 323.546 115.04 323.06 115.224C322.86 115.3 322.638 115.34 322.43 115.406C321.952 115.554 321.48 115.708 320.966 115.796C320.837 115.819 320.704 115.835 320.568 115.847L319.748 115.906C319.4 115.932 319.07 116 318.708 116H301.276C300.524 116 299.806 115.924 299.112 115.81C299.086 115.806 299.062 115.802 299.038 115.798C296.332 115.332 294.086 114.026 292.512 112.056C292.494 112.056 292.494 112.036 292.476 112.018C290.894 110.026 290 107.348 290 104.204V87.776C290 80.724 294.542 76 301.276 76H318.708ZM318.708 78.79H301.276C296.122 78.79 292.792 82.324 292.792 87.776V104.204C292.792 105.734 293.076 107.1 293.562 108.282C293.624 108.208 297.498 103.484 297.516 103.468C298.9 101.888 301.498 99.532 304.908 100.958C305.728 101.298 306.448 101.776 307.108 102.196C308.254 102.962 308.928 103.322 309.628 103.262C309.918 103.222 310.19 103.136 310.448 102.976C311.564 102.288 314.718 97.688 314.908 97.438C317.088 94.598 320.448 93.838 323.248 95.518C323.436 95.63 324.203 96.1565 325.035 96.7495L325.664 97.2013C326.288 97.6547 326.875 98.0965 327.21 98.38V87.776C327.21 82.324 323.88 78.79 318.708 78.79ZM302.959 83.9992C304.354 83.9992 305.617 84.586 306.523 85.5221C307.431 86.4254 308.001 87.6703 308.001 89.0291C308.001 91.739 305.734 93.9992 303.011 93.9992C300.617 93.9992 298.577 92.2505 298.119 89.9865C298.044 89.6468 298.001 89.2974 298.001 88.9365C298.001 86.2073 300.218 83.9992 302.959 83.9992Z" fill="#F4E29B"/>
<path d="M239.354 199C242.731 199 245 201.362 245 204.888V213.102C245 213.253 244.973 213.388 244.965 213.534C244.96 213.619 244.961 213.704 244.954 213.789C244.95 213.827 244.939 213.862 244.935 213.9C244.902 214.214 244.851 214.514 244.78 214.805C244.762 214.883 244.741 214.958 244.72 215.034C244.64 215.316 244.546 215.585 244.433 215.842C244.4 215.914 244.364 215.983 244.33 216.054C244.208 216.299 244.076 216.534 243.923 216.752L243.775 216.944C243.616 217.15 243.45 217.347 243.262 217.526C243.201 217.584 243.132 217.634 243.068 217.689C242.875 217.855 242.678 218.014 242.461 218.15C242.383 218.199 242.297 218.235 242.217 218.279C241.996 218.401 241.773 218.52 241.53 218.612C241.43 218.65 241.319 218.67 241.215 218.703C240.976 218.777 240.74 218.854 240.483 218.898C240.418 218.909 240.352 218.917 240.284 218.924L239.874 218.953C239.7 218.966 239.535 219 239.354 219H230.638C230.262 219 229.903 218.962 229.556 218.905C229.543 218.903 229.531 218.901 229.519 218.899C228.166 218.666 227.043 218.013 226.256 217.028C226.247 217.028 226.247 217.018 226.238 217.009C225.447 216.013 225 214.674 225 213.102V204.888C225 201.362 227.271 199 230.638 199H239.354ZM239.354 200.395H230.638C228.061 200.395 226.396 202.162 226.396 204.888V213.102C226.396 213.867 226.538 214.55 226.781 215.141C226.812 215.104 228.749 212.742 228.758 212.734C229.45 211.944 230.749 210.766 232.454 211.479C232.864 211.649 233.224 211.888 233.554 212.098C234.127 212.481 234.464 212.661 234.814 212.631C234.959 212.611 235.095 212.568 235.224 212.488C235.782 212.144 237.359 209.844 237.454 209.719C238.544 208.299 240.224 207.919 241.624 208.759C241.718 208.815 242.102 209.078 242.518 209.375L242.832 209.601C243.144 209.827 243.438 210.048 243.605 210.19V204.888C243.605 202.162 241.94 200.395 239.354 200.395ZM231.479 203C232.177 203 232.809 203.293 233.261 203.761C233.716 204.213 234.001 204.835 234.001 205.515C234.001 206.87 232.867 208 231.505 208C230.309 208 229.288 207.125 229.06 205.993C229.022 205.823 229.001 205.649 229.001 205.468C229.001 204.104 230.109 203 231.479 203Z" fill="#F4E29B"/>
<path d="M314.354 199C317.731 199 320 201.362 320 204.888V213.102C320 213.253 319.973 213.388 319.965 213.534C319.96 213.619 319.961 213.704 319.954 213.789C319.95 213.827 319.939 213.862 319.935 213.9C319.902 214.214 319.851 214.514 319.78 214.805C319.762 214.883 319.741 214.958 319.72 215.034C319.64 215.316 319.546 215.585 319.433 215.842C319.4 215.914 319.364 215.983 319.33 216.054C319.208 216.299 319.076 216.534 318.923 216.752L318.775 216.944C318.616 217.15 318.45 217.347 318.262 217.526C318.201 217.584 318.132 217.634 318.068 217.689C317.875 217.855 317.678 218.014 317.461 218.15C317.383 218.199 317.297 218.235 317.217 218.279C316.996 218.401 316.773 218.52 316.53 218.612C316.43 218.65 316.319 218.67 316.215 218.703C315.976 218.777 315.74 218.854 315.483 218.898C315.418 218.909 315.352 218.917 315.284 218.924L314.874 218.953C314.7 218.966 314.535 219 314.354 219H305.638C305.262 219 304.903 218.962 304.556 218.905C304.543 218.903 304.531 218.901 304.519 218.899C303.166 218.666 302.043 218.013 301.256 217.028C301.247 217.028 301.247 217.018 301.238 217.009C300.447 216.013 300 214.674 300 213.102V204.888C300 201.362 302.271 199 305.638 199H314.354ZM314.354 200.395H305.638C303.061 200.395 301.396 202.162 301.396 204.888V213.102C301.396 213.867 301.538 214.55 301.781 215.141C301.812 215.104 303.749 212.742 303.758 212.734C304.45 211.944 305.749 210.766 307.454 211.479C307.864 211.649 308.224 211.888 308.554 212.098C309.127 212.481 309.464 212.661 309.814 212.631C309.959 212.611 310.095 212.568 310.224 212.488C310.782 212.144 312.359 209.844 312.454 209.719C313.544 208.299 315.224 207.919 316.624 208.759C316.718 208.815 317.102 209.078 317.518 209.375L317.832 209.601C318.144 209.827 318.438 210.048 318.605 210.19V204.888C318.605 202.162 316.94 200.395 314.354 200.395ZM306.479 203C307.177 203 307.809 203.293 308.261 203.761C308.716 204.213 309.001 204.835 309.001 205.515C309.001 206.87 307.867 208 306.505 208C305.309 208 304.288 207.125 304.06 205.993C304.022 205.823 304.001 205.649 304.001 205.468C304.001 204.104 305.109 203 306.479 203Z" fill="#F4E29B"/>
<path d="M389.354 198C392.731 198 395 200.362 395 203.888V212.102C395 212.253 394.973 212.388 394.965 212.534C394.96 212.619 394.961 212.704 394.954 212.789C394.95 212.827 394.939 212.862 394.935 212.9C394.902 213.214 394.851 213.514 394.78 213.805C394.762 213.883 394.741 213.958 394.72 214.034C394.64 214.316 394.546 214.585 394.433 214.842C394.4 214.914 394.364 214.983 394.33 215.054C394.208 215.299 394.076 215.534 393.923 215.752L393.775 215.944C393.616 216.15 393.45 216.347 393.262 216.526C393.201 216.584 393.132 216.634 393.068 216.689C392.875 216.855 392.678 217.014 392.461 217.15C392.383 217.199 392.297 217.235 392.217 217.279C391.996 217.401 391.773 217.52 391.53 217.612C391.43 217.65 391.319 217.67 391.215 217.703C390.976 217.777 390.74 217.854 390.483 217.898C390.418 217.909 390.352 217.917 390.284 217.924L389.874 217.953C389.7 217.966 389.535 218 389.354 218H380.638C380.262 218 379.903 217.962 379.556 217.905C379.543 217.903 379.531 217.901 379.519 217.899C378.166 217.666 377.043 217.013 376.256 216.028C376.247 216.028 376.247 216.018 376.238 216.009C375.447 215.013 375 213.674 375 212.102V203.888C375 200.362 377.271 198 380.638 198H389.354ZM389.354 199.395H380.638C378.061 199.395 376.396 201.162 376.396 203.888V212.102C376.396 212.867 376.538 213.55 376.781 214.141C376.812 214.104 378.749 211.742 378.758 211.734C379.45 210.944 380.749 209.766 382.454 210.479C382.864 210.649 383.224 210.888 383.554 211.098C384.127 211.481 384.464 211.661 384.814 211.631C384.959 211.611 385.095 211.568 385.224 211.488C385.782 211.144 387.359 208.844 387.454 208.719C388.544 207.299 390.224 206.919 391.624 207.759C391.718 207.815 392.102 208.078 392.518 208.375L392.832 208.601C393.144 208.827 393.438 209.048 393.605 209.19V203.888C393.605 201.162 391.94 199.395 389.354 199.395ZM381.479 202C382.177 202 382.809 202.293 383.261 202.761C383.716 203.213 384.001 203.835 384.001 204.515C384.001 205.87 382.867 207 381.505 207C380.309 207 379.288 206.125 379.06 204.993C379.022 204.823 379.001 204.649 379.001 204.468C379.001 203.104 380.109 202 381.479 202Z" fill="#F4E29B"/>
<g filter="url(#filter1_d)">
<rect x="413" y="282" width="210" height="203" rx="10" fill="white"/>
<rect x="413.5" y="282.5" width="209" height="202" rx="9.5" stroke="#F3F3F3"/>
</g>
<rect x="433" y="302" width="170" height="120" rx="10" fill="#FFF5CB"/>
<rect x="433" y="437" width="170" height="28" rx="10" fill="#80EBFF"/>
<rect x="484" y="447" width="70" height="7" rx="3.5" fill="#3CBBD2"/>
<path d="M531.708 342C538.462 342 543 346.724 543 353.776V370.204C543 370.506 542.946 370.776 542.93 371.068C542.92 371.238 542.922 371.408 542.908 371.578C542.9 371.654 542.878 371.724 542.87 371.8C542.804 372.428 542.702 373.028 542.56 373.61C542.524 373.766 542.482 373.916 542.44 374.068C542.28 374.632 542.092 375.17 541.866 375.684C541.8 375.828 541.728 375.966 541.66 376.108C541.416 376.598 541.152 377.068 540.846 377.504L540.55 377.888C540.232 378.3 539.9 378.694 539.524 379.052C539.402 379.168 539.264 379.268 539.136 379.378C538.75 379.71 538.356 380.028 537.922 380.3C537.766 380.398 537.594 380.47 537.434 380.558C536.992 380.802 536.546 381.04 536.06 381.224C535.86 381.3 535.638 381.34 535.43 381.406C534.952 381.554 534.48 381.708 533.966 381.796C533.837 381.819 533.704 381.835 533.568 381.847L532.748 381.906C532.4 381.932 532.07 382 531.708 382H514.276C513.524 382 512.806 381.924 512.112 381.81C512.086 381.806 512.062 381.802 512.038 381.798C509.332 381.332 507.086 380.026 505.512 378.056C505.494 378.056 505.494 378.036 505.476 378.018C503.894 376.026 503 373.348 503 370.204V353.776C503 346.724 507.542 342 514.276 342H531.708ZM531.708 344.79H514.276C509.122 344.79 505.792 348.324 505.792 353.776V370.204C505.792 371.734 506.076 373.1 506.562 374.282C506.624 374.208 510.498 369.484 510.516 369.468C511.9 367.888 514.498 365.532 517.908 366.958C518.728 367.298 519.448 367.776 520.108 368.196C521.254 368.962 521.928 369.322 522.628 369.262C522.918 369.222 523.19 369.136 523.448 368.976C524.564 368.288 527.718 363.688 527.908 363.438C530.088 360.598 533.448 359.838 536.248 361.518C536.436 361.63 537.203 362.157 538.035 362.75L538.664 363.201C539.288 363.655 539.875 364.096 540.21 364.38V353.776C540.21 348.324 536.88 344.79 531.708 344.79ZM515.959 349.999C517.354 349.999 518.617 350.586 519.523 351.522C520.431 352.425 521.001 353.67 521.001 355.029C521.001 357.739 518.734 359.999 516.011 359.999C513.617 359.999 511.577 358.251 511.119 355.986C511.044 355.647 511.001 355.297 511.001 354.936C511.001 352.207 513.218 349.999 515.959 349.999Z" fill="#F4E29B"/>
<g filter="url(#filter2_d)">
<rect x="183" y="282" width="210" height="203" rx="10" fill="white"/>
<rect x="183.5" y="282.5" width="209" height="202" rx="9.5" stroke="#F3F3F3"/>
</g>
<rect x="203" y="302" width="170" height="120" rx="10" fill="#FFF5CB"/>
<rect x="203" y="437" width="170" height="28" rx="10" fill="#80EBFF"/>
<rect x="254" y="447" width="70" height="7" rx="3.5" fill="#3CBBD2"/>
<path d="M301.708 342C308.462 342 313 346.724 313 353.776V370.204C313 370.506 312.946 370.776 312.93 371.068C312.92 371.238 312.922 371.408 312.908 371.578C312.9 371.654 312.878 371.724 312.87 371.8C312.804 372.428 312.702 373.028 312.56 373.61C312.524 373.766 312.482 373.916 312.44 374.068C312.28 374.632 312.092 375.17 311.866 375.684C311.8 375.828 311.728 375.966 311.66 376.108C311.416 376.598 311.152 377.068 310.846 377.504L310.55 377.888C310.232 378.3 309.9 378.694 309.524 379.052C309.402 379.168 309.264 379.268 309.136 379.378C308.75 379.71 308.356 380.028 307.922 380.3C307.766 380.398 307.594 380.47 307.434 380.558C306.992 380.802 306.546 381.04 306.06 381.224C305.86 381.3 305.638 381.34 305.43 381.406C304.952 381.554 304.48 381.708 303.966 381.796C303.837 381.819 303.704 381.835 303.568 381.847L302.748 381.906C302.4 381.932 302.07 382 301.708 382H284.276C283.524 382 282.806 381.924 282.112 381.81C282.086 381.806 282.062 381.802 282.038 381.798C279.332 381.332 277.086 380.026 275.512 378.056C275.494 378.056 275.494 378.036 275.476 378.018C273.894 376.026 273 373.348 273 370.204V353.776C273 346.724 277.542 342 284.276 342H301.708ZM301.708 344.79H284.276C279.122 344.79 275.792 348.324 275.792 353.776V370.204C275.792 371.734 276.076 373.1 276.562 374.282C276.624 374.208 280.498 369.484 280.516 369.468C281.9 367.888 284.498 365.532 287.908 366.958C288.728 367.298 289.448 367.776 290.108 368.196C291.254 368.962 291.928 369.322 292.628 369.262C292.918 369.222 293.19 369.136 293.448 368.976C294.564 368.288 297.718 363.688 297.908 363.438C300.088 360.598 303.448 359.838 306.248 361.518C306.436 361.63 307.203 362.156 308.035 362.75L308.664 363.201C309.288 363.655 309.875 364.096 310.21 364.38V353.776C310.21 348.324 306.88 344.79 301.708 344.79ZM285.959 349.999C287.354 349.999 288.617 350.586 289.523 351.522C290.431 352.425 291.001 353.67 291.001 355.029C291.001 357.739 288.734 359.999 286.011 359.999C283.617 359.999 281.577 358.251 281.119 355.986C281.044 355.647 281.001 355.297 281.001 354.936C281.001 352.207 283.218 349.999 285.959 349.999Z" fill="#F4E29B"/>
<g filter="url(#filter3_d)">
<rect x="4" y="5" width="160" height="357" rx="10" fill="white"/>
<rect x="4.5" y="5.5" width="159" height="356" rx="9.5" stroke="#F3F3F3"/>
</g>
<rect x="24" y="308" width="120" height="28" rx="10" fill="#80EBFF"/>
<rect x="24" y="25" width="10" height="10" rx="2" fill="#99AFC6"/>
<rect x="24" y="154" width="10" height="10" rx="2" fill="#99AFC6"/>
<rect x="24" y="44" width="10" height="10" rx="2" fill="#99AFC6"/>
<rect width="7.072" height="1.4144" rx="0.7072" transform="matrix(-0.707107 0.707107 0.707107 0.707107 32.0005 45.9995)" fill="white"/>
<rect width="4.2432" height="1.4144" rx="0.7072" transform="matrix(-0.707107 -0.707107 -0.707107 0.707107 29.0005 51.0002)" fill="white"/>
<rect x="24" y="173" width="10" height="10" rx="2" fill="#99AFC6"/>
<rect x="24" y="63" width="10" height="10" rx="2" fill="#99AFC6"/>
<rect x="24" y="192" width="10" height="10" rx="2" fill="#99AFC6"/>
<rect x="24" y="82" width="10" height="10" rx="2" fill="#99AFC6"/>
<rect x="24" y="211" width="10" height="10" rx="2" fill="#99AFC6"/>
<rect x="24" y="232" width="10" height="10" rx="2" fill="#99AFC6"/>
<rect x="47" y="26" width="86" height="7" rx="3.5" fill="#D8E1EA"/>
<rect x="47" y="155" width="86" height="7" rx="3.5" fill="#D8E1EA"/>
<rect x="47" y="45" width="67" height="7" rx="3.5" fill="#D8E1EA"/>
<rect x="47" y="174" width="67" height="7" rx="3.5" fill="#D8E1EA"/>
<rect x="47" y="64" width="24" height="7" rx="3.5" fill="#D8E1EA"/>
<rect x="47" y="193" width="24" height="7" rx="3.5" fill="#D8E1EA"/>
<rect x="78" y="64" width="55" height="7" rx="3.5" fill="#D8E1EA"/>
<rect x="78" y="193" width="55" height="7" rx="3.5" fill="#D8E1EA"/>
<rect x="47" y="83" width="86" height="7" rx="3.5" fill="#D8E1EA"/>
<rect x="47" y="212" width="86" height="7" rx="3.5" fill="#D8E1EA"/>
<rect x="47" y="233" width="86" height="7" rx="3.5" fill="#D8E1EA"/>
<rect x="24" y="109" width="120" height="28" rx="5" fill="#D8E1EA"/>
<rect x="49" y="318" width="70" height="7" rx="3.5" fill="#3CBBD2"/>
<rect x="34" y="120" width="74" height="6" rx="2" fill="#99AFC6"/>
<path d="M129.366 125.5C128.981 126.167 128.019 126.167 127.634 125.5L125.469 121.75C125.084 121.083 125.565 120.25 126.335 120.25L130.665 120.25C131.435 120.25 131.916 121.083 131.531 121.75L129.366 125.5Z" fill="#99AFC6"/>
<defs>
<filter id="filter0_d" x="179" y="0" width="470" height="287" filterUnits="userSpaceOnUse" color-interpolation-filters="sRGB">
<feFlood flood-opacity="0" result="BackgroundImageFix"/>
<feColorMatrix in="SourceAlpha" type="matrix" values="0 0 0 0 0 0 0 0 0 0 0 0 0 0 0 0 0 0 127 0"/>
<feOffset dx="11" dy="10"/>
<feGaussianBlur stdDeviation="7.5"/>
<feColorMatrix type="matrix" values="0 0 0 0 0 0 0 0 0 0 0 0 0 0 0 0 0 0 0.05 0"/>
<feBlend mode="normal" in2="BackgroundImageFix" result="effect1_dropShadow"/>
<feBlend mode="normal" in="SourceGraphic" in2="effect1_dropShadow" result="shape"/>
</filter>
<filter id="filter1_d" x="409" y="277" width="240" height="233" filterUnits="userSpaceOnUse" color-interpolation-filters="sRGB">
<feFlood flood-opacity="0" result="BackgroundImageFix"/>
<feColorMatrix in="SourceAlpha" type="matrix" values="0 0 0 0 0 0 0 0 0 0 0 0 0 0 0 0 0 0 127 0"/>
<feOffset dx="11" dy="10"/>
<feGaussianBlur stdDeviation="7.5"/>
<feColorMatrix type="matrix" values="0 0 0 0 0 0 0 0 0 0 0 0 0 0 0 0 0 0 0.05 0"/>
<feBlend mode="normal" in2="BackgroundImageFix" result="effect1_dropShadow"/>
<feBlend mode="normal" in="SourceGraphic" in2="effect1_dropShadow" result="shape"/>
</filter>
<filter id="filter2_d" x="179" y="277" width="240" height="233" filterUnits="userSpaceOnUse" color-interpolation-filters="sRGB">
<feFlood flood-opacity="0" result="BackgroundImageFix"/>
<feColorMatrix in="SourceAlpha" type="matrix" values="0 0 0 0 0 0 0 0 0 0 0 0 0 0 0 0 0 0 127 0"/>
<feOffset dx="11" dy="10"/>
<feGaussianBlur stdDeviation="7.5"/>
<feColorMatrix type="matrix" values="0 0 0 0 0 0 0 0 0 0 0 0 0 0 0 0 0 0 0.05 0"/>
<feBlend mode="normal" in2="BackgroundImageFix" result="effect1_dropShadow"/>
<feBlend mode="normal" in="SourceGraphic" in2="effect1_dropShadow" result="shape"/>
</filter>
<filter id="filter3_d" x="0" y="0" width="190" height="387" filterUnits="userSpaceOnUse" color-interpolation-filters="sRGB">
<feFlood flood-opacity="0" result="BackgroundImageFix"/>
<feColorMatrix in="SourceAlpha" type="matrix" values="0 0 0 0 0 0 0 0 0 0 0 0 0 0 0 0 0 0 127 0"/>
<feOffset dx="11" dy="10"/>
<feGaussianBlur stdDeviation="7.5"/>
<feColorMatrix type="matrix" values="0 0 0 0 0 0 0 0 0 0 0 0 0 0 0 0 0 0 0.05 0"/>
<feBlend mode="normal" in2="BackgroundImageFix" result="effect1_dropShadow"/>
<feBlend mode="normal" in="SourceGraphic" in2="effect1_dropShadow" result="shape"/>
</filter>
</defs>
</svg>
