<svg width="470" height="584" viewBox="0 0 470 584" fill="none" xmlns="http://www.w3.org/2000/svg">
<g filter="url(#filter0_d)">
<rect x="4" y="5" width="440" height="257" rx="10" fill="white"/>
<rect x="4.5" y="5.5" width="439" height="256" rx="9.5" stroke="#F3F3F3"/>
</g>
<g filter="url(#filter1_d)">
<rect x="4" y="302" width="200" height="257" rx="10" fill="white"/>
<rect x="4.5" y="302.5" width="199" height="256" rx="9.5" stroke="#F3F3F3"/>
</g>
<g filter="url(#filter2_d)">
<rect x="244" y="302" width="200" height="257" rx="10" fill="white"/>
<rect x="244.5" y="302.5" width="199" height="256" rx="9.5" stroke="#F3F3F3"/>
</g>
<rect x="24" y="25" width="215" height="141" rx="10" fill="#FFF5CB"/>
<rect x="24" y="176" width="65" height="65" rx="10" fill="#FFF5CB"/>
<rect x="99" y="176" width="65" height="65" rx="10" fill="#FFF5CB"/>
<rect x="174" y="175" width="65" height="65" rx="10" fill="#FFF5CB"/>
<rect x="24" y="322" width="160" height="120" rx="10" fill="#FFF5CB"/>
<rect x="264" y="322" width="160" height="120" rx="10" fill="#FFF5CB"/>
<rect x="258" y="194" width="140" height="28" rx="10" fill="#80EBFF"/>
<rect x="24" y="506" width="160" height="28" rx="10" fill="#80EBFF"/>
<rect x="264" y="506" width="160" height="28" rx="10" fill="#80EBFF"/>
<rect x="258" y="25" width="70.9599" height="9.93439" rx="4.96719" fill="#684289"/>
<rect x="24" y="462" width="70.9599" height="9.93439" rx="4.96719" fill="#684289"/>
<rect x="264" y="462" width="70.9599" height="9.93439" rx="4.96719" fill="#684289"/>
<rect x="258" y="45" width="91" height="8" rx="4" fill="#99AFC6"/>
<rect x="105" y="463" width="79" height="8" rx="4" fill="#99AFC6"/>
<rect x="345" y="463" width="79" height="8" rx="4" fill="#99AFC6"/>
<rect x="258" y="82" width="172" height="7" rx="3.5" fill="#D8E1EA"/>
<rect x="258" y="99" width="34" height="7" rx="3.5" fill="#D8E1EA"/>
<rect x="302" y="99" width="128" height="7" rx="3.5" fill="#D8E1EA"/>
<rect x="258" y="116" width="128" height="7" rx="3.5" fill="#D8E1EA"/>
<rect x="258" y="133" width="82" height="7" rx="3.5" fill="#D8E1EA"/>
<rect x="24" y="481" width="160" height="7" rx="3.5" fill="#D8E1EA"/>
<rect x="264" y="481" width="160" height="7" rx="3.5" fill="#D8E1EA"/>
<rect x="293" y="204" width="70" height="7" rx="3.5" fill="#3CBBD2"/>
<rect x="69" y="516" width="70" height="7" rx="3.5" fill="#3CBBD2"/>
<rect x="309" y="516" width="70" height="7" rx="3.5" fill="#3CBBD2"/>
<path d="M139.708 76C146.462 76 151 80.724 151 87.776V104.204C151 104.506 150.946 104.776 150.93 105.068C150.92 105.238 150.922 105.408 150.908 105.578C150.9 105.654 150.878 105.724 150.87 105.8C150.804 106.428 150.702 107.028 150.56 107.61C150.524 107.766 150.482 107.916 150.44 108.068C150.28 108.632 150.092 109.17 149.866 109.684C149.8 109.828 149.728 109.966 149.66 110.108C149.416 110.598 149.152 111.068 148.846 111.504L148.55 111.888C148.232 112.3 147.9 112.694 147.524 113.052C147.402 113.168 147.264 113.268 147.136 113.378C146.75 113.71 146.356 114.028 145.922 114.3C145.766 114.398 145.594 114.47 145.434 114.558C144.992 114.802 144.546 115.04 144.06 115.224C143.86 115.3 143.638 115.34 143.43 115.406C142.952 115.554 142.48 115.708 141.966 115.796C141.837 115.819 141.704 115.835 141.568 115.847L140.748 115.906C140.4 115.932 140.07 116 139.708 116H122.276C121.524 116 120.806 115.924 120.112 115.81C120.086 115.806 120.062 115.802 120.038 115.798C117.332 115.332 115.086 114.026 113.512 112.056C113.494 112.056 113.494 112.036 113.476 112.018C111.894 110.026 111 107.348 111 104.204V87.776C111 80.724 115.542 76 122.276 76H139.708ZM139.708 78.79H122.276C117.122 78.79 113.792 82.324 113.792 87.776V104.204C113.792 105.734 114.076 107.1 114.562 108.282C114.624 108.208 118.498 103.484 118.516 103.468C119.9 101.888 122.498 99.532 125.908 100.958C126.728 101.298 127.448 101.776 128.108 102.196C129.254 102.962 129.928 103.322 130.628 103.262C130.918 103.222 131.19 103.136 131.448 102.976C132.564 102.288 135.718 97.688 135.908 97.438C138.088 94.598 141.448 93.838 144.248 95.518C144.436 95.63 145.203 96.1565 146.035 96.7495L146.664 97.2013C147.288 97.6547 147.875 98.0965 148.21 98.38V87.776C148.21 82.324 144.88 78.79 139.708 78.79ZM123.959 83.9992C125.354 83.9992 126.617 84.586 127.523 85.5221C128.431 86.4254 129.001 87.6703 129.001 89.0291C129.001 91.739 126.734 93.9992 124.011 93.9992C121.617 93.9992 119.577 92.2505 119.119 89.9865C119.044 89.6468 119.001 89.2974 119.001 88.9365C119.001 86.2073 121.218 83.9992 123.959 83.9992Z" fill="#F4E29B"/>
<path d="M60.354 199C63.731 199 66 201.362 66 204.888V213.102C66 213.253 65.973 213.388 65.965 213.534C65.96 213.619 65.961 213.704 65.954 213.789C65.95 213.827 65.939 213.862 65.935 213.9C65.902 214.214 65.851 214.514 65.78 214.805C65.762 214.883 65.741 214.958 65.72 215.034C65.64 215.316 65.546 215.585 65.433 215.842C65.4 215.914 65.364 215.983 65.33 216.054C65.208 216.299 65.076 216.534 64.923 216.752L64.775 216.944C64.616 217.15 64.45 217.347 64.262 217.526C64.201 217.584 64.132 217.634 64.068 217.689C63.875 217.855 63.678 218.014 63.461 218.15C63.383 218.199 63.297 218.235 63.217 218.279C62.996 218.401 62.773 218.52 62.53 218.612C62.43 218.65 62.319 218.67 62.215 218.703C61.976 218.777 61.74 218.854 61.483 218.898C61.4183 218.909 61.3518 218.917 61.2842 218.924L60.874 218.953C60.7 218.966 60.535 219 60.354 219H51.638C51.262 219 50.903 218.962 50.556 218.905C50.543 218.903 50.531 218.901 50.519 218.899C49.166 218.666 48.043 218.013 47.256 217.028C47.247 217.028 47.247 217.018 47.238 217.009C46.447 216.013 46 214.674 46 213.102V204.888C46 201.362 48.271 199 51.638 199H60.354ZM60.354 200.395H51.638C49.061 200.395 47.396 202.162 47.396 204.888V213.102C47.396 213.867 47.538 214.55 47.781 215.141C47.812 215.104 49.749 212.742 49.758 212.734C50.45 211.944 51.749 210.766 53.454 211.479C53.864 211.649 54.224 211.888 54.554 212.098C55.127 212.481 55.464 212.661 55.814 212.631C55.959 212.611 56.095 212.568 56.224 212.488C56.782 212.144 58.359 209.844 58.454 209.719C59.544 208.299 61.224 207.919 62.624 208.759C62.718 208.815 63.1017 209.078 63.5177 209.375L63.8318 209.601C64.1438 209.827 64.4377 210.048 64.605 210.19V204.888C64.605 202.162 62.94 200.395 60.354 200.395ZM52.4793 203C53.177 203 53.8087 203.293 54.2613 203.761C54.7157 204.213 55.0006 204.835 55.0006 205.515C55.0006 206.87 53.8669 208 52.5054 208C51.3087 208 50.2884 207.125 50.0597 205.993C50.0219 205.823 50.0006 205.649 50.0006 205.468C50.0006 204.104 51.1091 203 52.4793 203Z" fill="#F4E29B"/>
<path d="M135.354 199C138.731 199 141 201.362 141 204.888V213.102C141 213.253 140.973 213.388 140.965 213.534C140.96 213.619 140.961 213.704 140.954 213.789C140.95 213.827 140.939 213.862 140.935 213.9C140.902 214.214 140.851 214.514 140.78 214.805C140.762 214.883 140.741 214.958 140.72 215.034C140.64 215.316 140.546 215.585 140.433 215.842C140.4 215.914 140.364 215.983 140.33 216.054C140.208 216.299 140.076 216.534 139.923 216.752L139.775 216.944C139.616 217.15 139.45 217.347 139.262 217.526C139.201 217.584 139.132 217.634 139.068 217.689C138.875 217.855 138.678 218.014 138.461 218.15C138.383 218.199 138.297 218.235 138.217 218.279C137.996 218.401 137.773 218.52 137.53 218.612C137.43 218.65 137.319 218.67 137.215 218.703C136.976 218.777 136.74 218.854 136.483 218.898C136.418 218.909 136.352 218.917 136.284 218.924L135.874 218.953C135.7 218.966 135.535 219 135.354 219H126.638C126.262 219 125.903 218.962 125.556 218.905C125.543 218.903 125.531 218.901 125.519 218.899C124.166 218.666 123.043 218.013 122.256 217.028C122.247 217.028 122.247 217.018 122.238 217.009C121.447 216.013 121 214.674 121 213.102V204.888C121 201.362 123.271 199 126.638 199H135.354ZM135.354 200.395H126.638C124.061 200.395 122.396 202.162 122.396 204.888V213.102C122.396 213.867 122.538 214.55 122.781 215.141C122.812 215.104 124.749 212.742 124.758 212.734C125.45 211.944 126.749 210.766 128.454 211.479C128.864 211.649 129.224 211.888 129.554 212.098C130.127 212.481 130.464 212.661 130.814 212.631C130.959 212.611 131.095 212.568 131.224 212.488C131.782 212.144 133.359 209.844 133.454 209.719C134.544 208.299 136.224 207.919 137.624 208.759C137.718 208.815 138.102 209.078 138.518 209.375L138.832 209.601C139.144 209.827 139.438 210.048 139.605 210.19V204.888C139.605 202.162 137.94 200.395 135.354 200.395ZM127.479 203C128.177 203 128.809 203.293 129.261 203.761C129.716 204.213 130.001 204.835 130.001 205.515C130.001 206.87 128.867 208 127.505 208C126.309 208 125.288 207.125 125.06 205.993C125.022 205.823 125.001 205.649 125.001 205.468C125.001 204.104 126.109 203 127.479 203Z" fill="#F4E29B"/>
<path d="M210.354 198C213.731 198 216 200.362 216 203.888V212.102C216 212.253 215.973 212.388 215.965 212.534C215.96 212.619 215.961 212.704 215.954 212.789C215.95 212.827 215.939 212.862 215.935 212.9C215.902 213.214 215.851 213.514 215.78 213.805C215.762 213.883 215.741 213.958 215.72 214.034C215.64 214.316 215.546 214.585 215.433 214.842C215.4 214.914 215.364 214.983 215.33 215.054C215.208 215.299 215.076 215.534 214.923 215.752L214.775 215.944C214.616 216.15 214.45 216.347 214.262 216.526C214.201 216.584 214.132 216.634 214.068 216.689C213.875 216.855 213.678 217.014 213.461 217.15C213.383 217.199 213.297 217.235 213.217 217.279C212.996 217.401 212.773 217.52 212.53 217.612C212.43 217.65 212.319 217.67 212.215 217.703C211.976 217.777 211.74 217.854 211.483 217.898C211.418 217.909 211.352 217.917 211.284 217.924L210.874 217.953C210.7 217.966 210.535 218 210.354 218H201.638C201.262 218 200.903 217.962 200.556 217.905C200.543 217.903 200.531 217.901 200.519 217.899C199.166 217.666 198.043 217.013 197.256 216.028C197.247 216.028 197.247 216.018 197.238 216.009C196.447 215.013 196 213.674 196 212.102V203.888C196 200.362 198.271 198 201.638 198H210.354ZM210.354 199.395H201.638C199.061 199.395 197.396 201.162 197.396 203.888V212.102C197.396 212.867 197.538 213.55 197.781 214.141C197.812 214.104 199.749 211.742 199.758 211.734C200.45 210.944 201.749 209.766 203.454 210.479C203.864 210.649 204.224 210.888 204.554 211.098C205.127 211.481 205.464 211.661 205.814 211.631C205.959 211.611 206.095 211.568 206.224 211.488C206.782 211.144 208.359 208.844 208.454 208.719C209.544 207.299 211.224 206.919 212.624 207.759C212.718 207.815 213.102 208.078 213.518 208.375L213.832 208.601C214.144 208.827 214.438 209.048 214.605 209.19V203.888C214.605 201.162 212.94 199.395 210.354 199.395ZM202.479 202C203.177 202 203.809 202.293 204.261 202.761C204.716 203.213 205.001 203.835 205.001 204.515C205.001 205.87 203.867 207 202.505 207C201.309 207 200.288 206.125 200.06 204.993C200.022 204.823 200.001 204.649 200.001 204.468C200.001 203.104 201.109 202 202.479 202Z" fill="#F4E29B"/>
<path d="M112.708 362C119.462 362 124 366.724 124 373.776V390.204C124 390.506 123.946 390.776 123.93 391.068C123.92 391.238 123.922 391.408 123.908 391.578C123.9 391.654 123.878 391.724 123.87 391.8C123.804 392.428 123.702 393.028 123.56 393.61C123.524 393.766 123.482 393.916 123.44 394.068C123.28 394.632 123.092 395.17 122.866 395.684C122.8 395.828 122.728 395.966 122.66 396.108C122.416 396.598 122.152 397.068 121.846 397.504L121.55 397.888C121.232 398.3 120.9 398.694 120.524 399.052C120.402 399.168 120.264 399.268 120.136 399.378C119.75 399.71 119.356 400.028 118.922 400.3C118.766 400.398 118.594 400.47 118.434 400.558C117.992 400.802 117.546 401.04 117.06 401.224C116.86 401.3 116.638 401.34 116.43 401.406C115.952 401.554 115.48 401.708 114.966 401.796C114.837 401.819 114.704 401.835 114.568 401.847L113.748 401.906C113.4 401.932 113.07 402 112.708 402H95.276C94.524 402 93.806 401.924 93.112 401.81C93.086 401.806 93.062 401.802 93.038 401.798C90.332 401.332 88.086 400.026 86.512 398.056C86.494 398.056 86.494 398.036 86.476 398.018C84.894 396.026 84 393.348 84 390.204V373.776C84 366.724 88.542 362 95.276 362H112.708ZM112.708 364.79H95.276C90.122 364.79 86.792 368.324 86.792 373.776V390.204C86.792 391.734 87.076 393.1 87.562 394.282C87.624 394.208 91.498 389.484 91.516 389.468C92.9 387.888 95.498 385.532 98.908 386.958C99.728 387.298 100.448 387.776 101.108 388.196C102.254 388.962 102.928 389.322 103.628 389.262C103.918 389.222 104.19 389.136 104.448 388.976C105.564 388.288 108.718 383.688 108.908 383.438C111.088 380.598 114.448 379.838 117.248 381.518C117.436 381.63 118.203 382.156 119.035 382.75L119.664 383.201C120.288 383.655 120.875 384.096 121.21 384.38V373.776C121.21 368.324 117.88 364.79 112.708 364.79ZM96.9586 369.999C98.3539 369.999 99.6175 370.586 100.523 371.522C101.431 372.425 102.001 373.67 102.001 375.029C102.001 377.739 99.7338 379.999 97.0109 379.999C94.6175 379.999 92.5768 378.251 92.1194 375.986C92.0438 375.647 92.0012 375.297 92.0012 374.936C92.0012 372.207 94.2183 369.999 96.9586 369.999Z" fill="#F4E29B"/>
<path d="M352.708 362C359.462 362 364 366.724 364 373.776V390.204C364 390.506 363.946 390.776 363.93 391.068C363.92 391.238 363.922 391.408 363.908 391.578C363.9 391.654 363.878 391.724 363.87 391.8C363.804 392.428 363.702 393.028 363.56 393.61C363.524 393.766 363.482 393.916 363.44 394.068C363.28 394.632 363.092 395.17 362.866 395.684C362.8 395.828 362.728 395.966 362.66 396.108C362.416 396.598 362.152 397.068 361.846 397.504L361.55 397.888C361.232 398.3 360.9 398.694 360.524 399.052C360.402 399.168 360.264 399.268 360.136 399.378C359.75 399.71 359.356 400.028 358.922 400.3C358.766 400.398 358.594 400.47 358.434 400.558C357.992 400.802 357.546 401.04 357.06 401.224C356.86 401.3 356.638 401.34 356.43 401.406C355.952 401.554 355.48 401.708 354.966 401.796C354.837 401.819 354.704 401.835 354.568 401.847L353.748 401.906C353.4 401.932 353.07 402 352.708 402H335.276C334.524 402 333.806 401.924 333.112 401.81C333.086 401.806 333.062 401.802 333.038 401.798C330.332 401.332 328.086 400.026 326.512 398.056C326.494 398.056 326.494 398.036 326.476 398.018C324.894 396.026 324 393.348 324 390.204V373.776C324 366.724 328.542 362 335.276 362H352.708ZM352.708 364.79H335.276C330.122 364.79 326.792 368.324 326.792 373.776V390.204C326.792 391.734 327.076 393.1 327.562 394.282C327.624 394.208 331.498 389.484 331.516 389.468C332.9 387.888 335.498 385.532 338.908 386.958C339.728 387.298 340.448 387.776 341.108 388.196C342.254 388.962 342.928 389.322 343.628 389.262C343.918 389.222 344.19 389.136 344.448 388.976C345.564 388.288 348.718 383.688 348.908 383.438C351.088 380.598 354.448 379.838 357.248 381.518C357.436 381.63 358.203 382.156 359.035 382.75L359.664 383.201C360.288 383.655 360.875 384.096 361.21 384.38V373.776C361.21 368.324 357.88 364.79 352.708 364.79ZM336.959 369.999C338.354 369.999 339.617 370.586 340.523 371.522C341.431 372.425 342.001 373.67 342.001 375.029C342.001 377.739 339.734 379.999 337.011 379.999C334.617 379.999 332.577 378.251 332.119 375.986C332.044 375.647 332.001 375.297 332.001 374.936C332.001 372.207 334.218 369.999 336.959 369.999Z" fill="#F4E29B"/>
<defs>
<filter id="filter0_d" x="0" y="0" width="470" height="287" filterUnits="userSpaceOnUse" color-interpolation-filters="sRGB">
<feFlood flood-opacity="0" result="BackgroundImageFix"/>
<feColorMatrix in="SourceAlpha" type="matrix" values="0 0 0 0 0 0 0 0 0 0 0 0 0 0 0 0 0 0 127 0"/>
<feOffset dx="11" dy="10"/>
<feGaussianBlur stdDeviation="7.5"/>
<feColorMatrix type="matrix" values="0 0 0 0 0 0 0 0 0 0 0 0 0 0 0 0 0 0 0.05 0"/>
<feBlend mode="normal" in2="BackgroundImageFix" result="effect1_dropShadow"/>
<feBlend mode="normal" in="SourceGraphic" in2="effect1_dropShadow" result="shape"/>
</filter>
<filter id="filter1_d" x="0" y="297" width="230" height="287" filterUnits="userSpaceOnUse" color-interpolation-filters="sRGB">
<feFlood flood-opacity="0" result="BackgroundImageFix"/>
<feColorMatrix in="SourceAlpha" type="matrix" values="0 0 0 0 0 0 0 0 0 0 0 0 0 0 0 0 0 0 127 0"/>
<feOffset dx="11" dy="10"/>
<feGaussianBlur stdDeviation="7.5"/>
<feColorMatrix type="matrix" values="0 0 0 0 0 0 0 0 0 0 0 0 0 0 0 0 0 0 0.05 0"/>
<feBlend mode="normal" in2="BackgroundImageFix" result="effect1_dropShadow"/>
<feBlend mode="normal" in="SourceGraphic" in2="effect1_dropShadow" result="shape"/>
</filter>
<filter id="filter2_d" x="240" y="297" width="230" height="287" filterUnits="userSpaceOnUse" color-interpolation-filters="sRGB">
<feFlood flood-opacity="0" result="BackgroundImageFix"/>
<feColorMatrix in="SourceAlpha" type="matrix" values="0 0 0 0 0 0 0 0 0 0 0 0 0 0 0 0 0 0 127 0"/>
<feOffset dx="11" dy="10"/>
<feGaussianBlur stdDeviation="7.5"/>
<feColorMatrix type="matrix" values="0 0 0 0 0 0 0 0 0 0 0 0 0 0 0 0 0 0 0.05 0"/>
<feBlend mode="normal" in2="BackgroundImageFix" result="effect1_dropShadow"/>
<feBlend mode="normal" in="SourceGraphic" in2="effect1_dropShadow" result="shape"/>
</filter>
</defs>
</svg>
