<svg width="25" height="25" viewBox="0 0 25 25" fill="none" xmlns="http://www.w3.org/2000/svg">
<path d="M21.3182 18.6481C20.2335 19.608 18.6613 20.2965 16.6018 20.7135C14.5423 21.1305 12.4199 21.2525 10.2346 21.0794L6.08419 24.1953V20.3004C4.71643 19.8755 3.64737 19.3247 2.87702 18.6481C1.96518 17.8455 1.25771 16.6928 0.754628 15.1899C0.251543 13.687 0 12.1527 0 10.5869C0 9.0211 0.251543 7.48676 0.754628 5.9839C1.25771 4.48104 1.96911 3.32439 2.88881 2.51395C3.80851 1.7035 5.12518 1.0819 6.83882 0.649141C8.55245 0.21638 10.3054 0 12.0976 0C13.8899 0 15.6428 0.21638 17.3564 0.649141C19.0701 1.0819 20.3868 1.7035 21.3065 2.51395C22.2262 3.32439 22.9376 4.48104 23.4406 5.9839C23.9437 7.48676 24.1953 9.0211 24.1953 10.5869C24.1953 12.1527 23.9437 13.687 23.4406 15.1899C22.9376 16.6928 22.2301 17.8455 21.3182 18.6481ZM15.069 12.8648L16.6018 13.1245C16.476 11.236 15.7489 9.62303 14.4205 8.2854C13.092 6.94778 11.4845 6.21602 9.59793 6.09013L9.85733 7.62446C11.2094 7.79756 12.3728 8.37196 13.3475 9.34763C14.3222 10.3233 14.896 11.4957 15.069 12.8648ZM10.1167 9.206L10.3997 10.9056C11.0286 11.2203 11.4924 11.6845 11.7911 12.2983L13.489 12.5815C13.3003 11.7475 12.8994 11.0275 12.2863 10.4217C11.6732 9.8158 10.95 9.41058 10.1167 9.206ZM7.59345 10.5987V9.08798C7.59345 8.82045 7.49519 8.55293 7.29867 8.2854C7.10215 8.01788 6.89384 7.8251 6.67374 7.70708C6.45364 7.58905 6.28857 7.57725 6.17852 7.67167L5.09374 8.78111C4.4806 9.39485 4.39021 10.3509 4.82255 11.6491C5.25488 12.9474 6.08026 14.2064 7.29867 15.426C8.51708 16.6456 9.77479 17.4717 11.0718 17.9045C12.3688 18.3373 13.316 18.2468 13.9135 17.633L15.0218 16.5236C15.1319 16.4292 15.1279 16.2679 15.01 16.0397C14.8921 15.8115 14.6995 15.603 14.4323 15.4142C14.165 15.2253 13.8977 15.1309 13.6305 15.1309H12.1212L11.2487 15.8863C10.5569 15.6974 9.69619 15.0876 8.66643 14.0569C7.63668 13.0261 7.02747 12.1566 6.83882 11.4485L7.59345 10.5987ZM9.1027 3.04506L9.33852 4.5794C10.9107 4.61087 12.3649 5.02396 13.7012 5.81867C15.0375 6.61337 16.0987 7.6756 16.8848 9.00536C17.6709 10.3351 18.0875 11.7868 18.1347 13.3605L19.6675 13.6202C19.6675 12.1881 19.3884 10.819 18.8303 9.51287C18.2722 8.20672 17.5215 7.08154 16.5782 6.13734C15.635 5.19313 14.5109 4.4417 13.206 3.88305C11.9011 3.32439 10.5334 3.04506 9.1027 3.04506Z" fill="#252525"/>
</svg>
