<svg width="24" height="25" viewBox="0 0 24 25" fill="none" xmlns="http://www.w3.org/2000/svg">
<path d="M22.1822 6.23655C18.6877 0.834294 11.5531 -0.771783 6.02011 2.58638C0.632736 5.94454 -1.11452 13.2449 2.37999 18.6472L2.6712 19.0852L1.50636 23.4654L5.8745 22.2973L6.31132 22.5893C8.20418 23.6114 10.2426 24.1954 12.2811 24.1954C14.4652 24.1954 16.6493 23.6114 18.5421 22.4433C23.9295 18.9392 25.5311 11.7848 22.1822 6.23655ZM19.1245 17.4791C18.5421 18.3551 17.8141 18.9392 16.7949 19.0852C16.2124 19.0852 15.4844 19.3772 12.5723 18.2091C10.097 17.0411 8.05857 15.143 6.60253 12.9529C5.7289 11.9308 5.29209 10.6168 5.14648 9.3027C5.14648 8.13465 5.5833 7.1126 6.31132 6.38256C6.60253 6.09055 6.89374 5.94454 7.18495 5.94454H7.91297C8.20418 5.94454 8.49539 5.94454 8.64099 6.52857C8.9322 7.2586 9.66023 9.01069 9.66023 9.15669C9.80583 9.3027 9.80583 9.59472 9.66023 9.74072C9.80583 10.0327 9.66023 10.3248 9.51462 10.4708C9.36902 10.6168 9.22341 10.9088 9.07781 11.0548C8.7866 11.2008 8.64099 11.4928 8.7866 11.7848C9.36902 12.6609 10.097 13.5369 10.8251 14.2669C11.6987 14.997 12.5723 15.581 13.5916 16.019C13.8828 16.165 14.174 16.165 14.3196 15.873C14.4652 15.581 15.1932 14.851 15.4844 14.559C15.7756 14.2669 15.9212 14.2669 16.2124 14.4129L18.5421 15.581C18.8333 15.727 19.1245 15.873 19.2701 16.019C19.4157 16.457 19.4157 17.0411 19.1245 17.4791Z" fill="#252525"/>
</svg>
